<svg width="48" height="48" viewBox="0 0 48 48" fill="none" xmlns="http://www.w3.org/2000/svg">
<g id="Close remove">
<path id="Vector" fill-rule="evenodd" clip-rule="evenodd" d="M26.828 24.0004L37.414 13.4145C38.196 12.6325 38.196 11.3685 37.414 10.5865C36.632 9.8045 35.368 9.8045 34.586 10.5865L24 21.1724L13.414 10.5865C12.632 9.8045 11.368 9.8045 10.586 10.5865C9.80401 11.3685 9.80401 12.6325 10.586 13.4145L21.172 24.0004L10.586 34.5866C9.80401 35.3684 9.80401 36.6324 10.586 37.4144C10.976 37.8044 11.488 38.0004 12 38.0004C12.512 38.0004 13.024 37.8044 13.414 37.4144L24 26.8286L34.586 37.4144C34.976 37.8044 35.488 38.0004 36 38.0004C36.512 38.0004 37.024 37.8044 37.414 37.4144C38.196 36.6324 38.196 35.3684 37.414 34.5866L26.828 24.0004Z" fill="#F3F3F3"/>
</g>
</svg>
