<svg width="177" height="37" viewBox="0 0 177 37" fill="none" xmlns="http://www.w3.org/2000/svg">
<path d="M56.6024 21.2616C57.6634 21.2616 58.615 21.0176 59.4568 20.5298C60.298 20.0421 60.9617 19.369 61.4464 18.5106C61.931 17.6523 62.1739 16.6901 62.1739 15.6233C62.1739 14.5394 61.931 13.5726 61.4464 12.723C60.9617 11.8741 60.298 11.2014 59.4568 10.7038C58.615 10.207 57.6634 9.95804 56.6024 9.95804C55.5595 9.95804 54.6171 10.207 53.7756 10.7038C52.9338 11.2014 52.275 11.8741 51.7995 12.723C51.3234 13.5726 51.0858 14.5394 51.0858 15.6233C51.0858 16.6901 51.3234 17.6523 51.7995 18.5106C52.275 19.369 52.9338 20.0421 53.7756 20.5298C54.6171 21.0176 55.5595 21.2616 56.6024 21.2616ZM50.0705 29.3663C49.7409 29.3663 49.4804 29.2716 49.2882 29.0821C49.0963 28.8922 49 28.6345 49 28.3094V15.5153C49.0181 14.1055 49.3611 12.8363 50.0291 11.7066C50.6971 10.5776 51.6027 9.68707 52.7465 9.03673C53.8896 8.38605 55.1754 8.06088 56.6024 8.06088C58.0659 8.06088 59.3743 8.3906 60.527 9.05037C61.68 9.71015 62.5898 10.6091 63.2579 11.7472C63.9255 12.8856 64.2597 14.1779 64.2597 15.6233C64.2597 17.0512 63.9347 18.3341 63.2855 19.4729C62.6355 20.6113 61.7526 21.5102 60.6368 22.1696C59.5206 22.8294 58.2581 23.1591 56.8495 23.1591C55.6232 23.1591 54.512 22.9018 53.5147 22.3864C52.5175 21.8718 51.717 21.1896 51.1135 20.34V28.3094C51.1135 28.6345 51.0172 28.8922 50.8253 29.0821C50.6331 29.2716 50.3814 29.3663 50.0705 29.3663Z" fill="#1E1E1E"/>
<path d="M69.4191 13.8887C69.474 12.7688 69.771 11.7657 70.3113 10.8801C70.8508 9.99443 71.5553 9.29899 72.4244 8.79271C73.2931 8.28713 74.2585 8.03399 75.3198 8.03399C76.1613 8.03399 76.8109 8.15147 77.2687 8.38608C77.7257 8.62139 77.8999 8.96473 77.7901 9.41612C77.7165 9.68674 77.5929 9.86821 77.4195 9.95842C77.2453 10.049 77.0354 10.085 76.7883 10.0665C76.5412 10.049 76.2619 10.0308 75.951 10.0126C74.9262 9.9224 74.0163 10.0262 73.2205 10.3241C72.4244 10.6224 71.7931 11.079 71.3266 11.6933C70.86 12.3077 70.6267 13.0398 70.6267 13.8887H69.4191ZM69.5838 23.0235C69.2545 23.0235 68.9979 22.9336 68.8155 22.7529C68.6322 22.5721 68.5408 22.3186 68.5408 21.9935V9.22662C68.5408 8.9011 68.6322 8.64831 68.8155 8.46754C68.9979 8.28713 69.2545 8.19657 69.5838 8.19657C69.9133 8.19657 70.1693 8.28713 70.3523 8.46754C70.535 8.64831 70.6267 8.9011 70.6267 9.22662V21.9935C70.6267 22.3186 70.535 22.5721 70.3523 22.7529C70.1693 22.9336 69.9133 23.0235 69.5838 23.0235Z" fill="#1E1E1E"/>
<path d="M86.9839 21.2616C88.0448 21.2616 88.9964 21.0176 89.8383 20.5298C90.6794 20.0421 91.3382 19.3739 91.8144 18.5239C92.2898 17.6747 92.5277 16.7083 92.5277 15.6233C92.5277 14.5394 92.2898 13.5681 91.8144 12.7097C91.3382 11.8514 90.6794 11.178 89.8383 10.6906C88.9964 10.2021 88.0448 9.95806 86.9839 9.95806C85.9225 9.95806 84.971 10.2021 84.1295 10.6906C83.2876 11.178 82.6246 11.8514 82.1399 12.7097C81.6549 13.5681 81.4124 14.5394 81.4124 15.6233C81.4124 16.7083 81.6549 17.6747 82.1399 18.5239C82.6246 19.3739 83.2876 20.0421 84.1295 20.5298C84.971 21.0176 85.9225 21.2616 86.9839 21.2616ZM86.9839 23.1591C85.52 23.1591 84.2119 22.834 83.0593 22.1833C81.9066 21.5326 81.0007 20.6382 80.3422 19.4998C79.6834 18.3614 79.3542 17.0694 79.3542 15.6233C79.3542 14.1597 79.6834 12.8587 80.3422 11.7203C81.0007 10.5818 81.9066 9.68709 83.0593 9.03675C84.2119 8.38607 85.52 8.0609 86.9839 8.0609C88.4474 8.0609 89.7512 8.38607 90.895 9.03675C92.0381 9.68709 92.9394 10.5818 93.5982 11.7203C94.2567 12.8587 94.5951 14.1597 94.6136 15.6233C94.6136 17.0694 94.2797 18.3614 93.6121 19.4998C92.9437 20.6382 92.0381 21.5326 90.895 22.1833C89.7512 22.834 88.4474 23.1591 86.9839 23.1591Z" fill="#1E1E1E"/>
<path d="M104.11 23.1591C103.03 23.1591 101.959 22.9786 100.898 22.6171C99.8371 22.2556 98.9772 21.7136 98.3187 20.9906C98.1169 20.7738 98.0348 20.5297 98.0716 20.2588C98.1081 19.9878 98.2454 19.7532 98.4833 19.5539C98.7393 19.3735 99.0048 19.3011 99.2791 19.3371C99.5535 19.3735 99.7822 19.491 99.9652 19.6896C100.405 20.1958 100.985 20.5839 101.708 20.8549C102.431 21.1266 103.231 21.2615 104.11 21.2615C105.463 21.2615 106.443 21.0311 107.046 20.571C107.65 20.1098 107.961 19.5539 107.979 18.9036C107.979 18.2529 107.668 17.7155 107.046 17.2903C106.424 16.8662 105.4 16.5365 103.972 16.3012C102.124 16.0127 100.77 15.5061 99.9103 14.7834C99.0501 14.061 98.6207 13.2023 98.6207 12.2086C98.6207 11.2863 98.8674 10.5188 99.3616 9.90412C99.8555 9.29015 100.514 8.82932 101.338 8.52164C102.161 8.2143 103.067 8.06081 104.054 8.06081C105.28 8.06081 106.337 8.26884 107.225 8.68457C108.112 9.10029 108.83 9.66042 109.379 10.365C109.562 10.5999 109.635 10.8436 109.599 11.0968C109.562 11.3502 109.416 11.5576 109.159 11.7202C108.94 11.8467 108.688 11.8873 108.405 11.8422C108.121 11.7974 107.878 11.666 107.677 11.4492C107.22 10.9251 106.689 10.5412 106.085 10.2971C105.482 10.0534 104.786 9.93104 104 9.93104C102.993 9.93104 102.188 10.1345 101.584 10.5412C100.981 10.9478 100.679 11.4586 100.679 12.0726C100.679 12.4887 100.793 12.8502 101.022 13.1572C101.251 13.4642 101.644 13.7355 102.202 13.9701C102.76 14.2054 103.542 14.4037 104.549 14.5663C105.921 14.7834 107.005 15.104 107.801 15.5285C108.597 15.9536 109.164 16.4505 109.503 17.0193C109.841 17.5886 110.01 18.2078 110.01 18.8763C110.01 19.7263 109.759 20.4714 109.256 21.1126C108.752 21.7542 108.057 22.2556 107.17 22.6171C106.282 22.9786 105.262 23.1591 104.11 23.1591Z" fill="#1E1E1E"/>
<path d="M121.4 21.2616C122.461 21.2616 123.412 21.0176 124.254 20.5298C125.095 20.0421 125.759 19.369 126.244 18.5106C126.728 17.6523 126.971 16.6901 126.971 15.6233C126.971 14.5394 126.728 13.5726 126.244 12.723C125.759 11.8741 125.095 11.2014 124.254 10.7038C123.412 10.207 122.461 9.95804 121.4 9.95804C120.357 9.95804 119.415 10.207 118.573 10.7038C117.731 11.2014 117.072 11.8741 116.597 12.723C116.121 13.5726 115.883 14.5394 115.883 15.6233C115.883 16.6901 116.121 17.6523 116.597 18.5106C117.072 19.369 117.731 20.0421 118.573 20.5298C119.415 21.0176 120.357 21.2616 121.4 21.2616ZM114.868 29.3663C114.539 29.3663 114.278 29.2716 114.086 29.0821C113.894 28.8922 113.797 28.6345 113.797 28.3094V15.5153C113.815 14.1055 114.159 12.8363 114.827 11.7066C115.494 10.5776 116.4 9.68707 117.544 9.03673C118.687 8.38605 119.973 8.06088 121.4 8.06088C122.863 8.06088 124.172 8.3906 125.325 9.05037C126.477 9.71015 127.387 10.6091 128.055 11.7472C128.723 12.8856 129.057 14.1779 129.057 15.6233C129.057 17.0512 128.732 18.3341 128.083 19.4729C127.433 20.6113 126.55 21.5102 125.434 22.1696C124.318 22.8294 123.056 23.1591 121.647 23.1591C120.421 23.1591 119.309 22.9018 118.312 22.3864C117.315 21.8718 116.515 21.1896 115.911 20.34V28.3094C115.911 28.6345 115.815 28.8922 115.623 29.0821C115.431 29.2716 115.179 29.3663 114.868 29.3663Z" fill="#1E1E1E"/>
<path d="M142.444 22.6319C141.032 23.077 139.683 23.1668 138.396 22.8994C137.109 22.6322 135.98 22.0539 135.011 21.1644C134.042 20.2753 133.332 19.1334 132.88 17.7393C132.424 16.3278 132.313 14.9922 132.549 13.7321C132.785 12.472 133.316 11.3695 134.144 10.4255C134.972 9.48113 136.057 8.79723 137.399 8.37381C138.723 7.95564 139.974 7.88851 141.151 8.17137C142.328 8.45458 143.356 9.03604 144.236 9.91539C145.116 10.7951 145.774 11.9059 146.208 13.2485C146.297 13.524 146.281 13.7712 146.16 13.9894C146.038 14.2083 145.838 14.3614 145.56 14.4492L134.448 17.9558L133.914 16.3033L145.234 12.7307L144.369 13.8859C144.063 12.8824 143.59 12.0451 142.951 11.3737C142.311 10.7035 141.566 10.2556 140.715 10.0304C139.865 9.80595 138.951 9.84756 137.976 10.1552C136.982 10.4689 136.185 10.9766 135.587 11.6776C134.988 12.379 134.616 13.2034 134.47 14.1499C134.325 15.0971 134.423 16.0957 134.763 17.1453C135.102 18.1953 135.634 19.0522 136.358 19.7152C137.081 20.3788 137.919 20.8162 138.871 21.0277C139.823 21.2396 140.822 21.1802 141.868 20.8501C142.495 20.6522 143.092 20.3456 143.659 19.9295C144.225 19.5138 144.648 19.0816 144.925 18.633C145.066 18.418 145.258 18.2676 145.499 18.1816C145.74 18.0963 145.971 18.0946 146.189 18.1774C146.482 18.3124 146.672 18.4995 146.759 18.7376C146.846 18.976 146.813 19.2141 146.659 19.4519C146.24 20.1155 145.638 20.747 144.852 21.3455C144.066 21.9452 143.263 22.3735 142.444 22.6319Z" fill="#1E1E1E"/>
<path d="M151.205 13.8887C151.26 12.7688 151.557 11.7657 152.097 10.8801C152.636 9.99443 153.341 9.29899 154.21 8.79271C155.079 8.28713 156.044 8.03399 157.106 8.03399C157.947 8.03399 158.597 8.15147 159.054 8.38608C159.511 8.62139 159.685 8.96473 159.576 9.41612C159.502 9.68674 159.379 9.86821 159.205 9.95842C159.031 10.049 158.821 10.085 158.574 10.0665C158.327 10.049 158.047 10.0308 157.737 10.0126C156.712 9.9224 155.802 10.0262 155.006 10.3241C154.21 10.6224 153.579 11.079 153.113 11.6933C152.646 12.3077 152.412 13.0398 152.412 13.8887H151.205ZM151.37 23.0235C151.04 23.0235 150.784 22.9336 150.601 22.7529C150.418 22.5721 150.327 22.3186 150.327 21.9935V9.22662C150.327 8.9011 150.418 8.64831 150.601 8.46754C150.784 8.28713 151.04 8.19657 151.37 8.19657C151.699 8.19657 151.955 8.28713 152.138 8.46754C152.32 8.64831 152.412 8.9011 152.412 9.22662V21.9935C152.412 22.3186 152.32 22.5721 152.138 22.7529C151.955 22.9336 151.699 23.0235 151.37 23.0235Z" fill="#1E1E1E"/>
<path d="M175.329 23.0235C175.018 23.0235 174.762 22.9288 174.561 22.7393C174.359 22.5498 174.259 22.3015 174.259 21.9938V17.3583L174.78 15.2171L176.4 15.6234V21.9938C176.4 22.3015 176.299 22.5498 176.098 22.7393C175.896 22.9288 175.64 23.0235 175.329 23.0235ZM168.77 21.2617C169.831 21.2617 170.778 21.018 171.61 20.5299C172.443 20.0425 173.101 19.3691 173.586 18.5104C174.071 17.6527 174.313 16.6901 174.313 15.6234C174.313 14.5395 174.071 13.5727 173.586 12.7231C173.101 11.8741 172.443 11.2011 171.61 10.7042C170.778 10.207 169.831 9.95811 168.77 9.95811C167.727 9.95811 166.784 10.207 165.943 10.7042C165.101 11.2011 164.434 11.8741 163.939 12.7231C163.446 13.5727 163.198 14.5395 163.198 15.6234C163.198 16.6901 163.446 17.6527 163.939 18.5104C164.434 19.3691 165.101 20.0425 165.943 20.5299C166.784 21.018 167.727 21.2617 168.77 21.2617ZM168.55 23.1595C167.141 23.1595 165.879 22.8295 164.763 22.1701C163.646 21.5103 162.763 20.6114 162.114 19.4729C161.465 18.3341 161.14 17.0513 161.14 15.6234C161.14 14.1779 161.473 12.8857 162.141 11.7472C162.809 10.6091 163.72 9.71021 164.873 9.05008C166.025 8.39066 167.325 8.06095 168.77 8.06095C170.215 8.06095 171.51 8.39066 172.653 9.05008C173.797 9.71021 174.702 10.6091 175.371 11.7472C176.038 12.8857 176.381 14.1779 176.4 15.6234L175.549 16.274C175.549 17.5754 175.242 18.7457 174.629 19.7844C174.016 20.8239 173.184 21.6459 172.132 22.2512C171.08 22.8568 169.885 23.1595 168.55 23.1595Z" fill="#1E1E1E"/>
<path d="M37 18.2716C37 28.3629 28.7173 36.5432 18.5 36.5432C8.28274 36.5432 0 28.3629 0 18.2716C0 8.18049 8.28274 0 18.5 0C28.7173 0 37 8.18049 37 18.2716Z" fill="#FFB728"/>
<path d="M24.4809 23.342C25.9711 23.342 27.3135 22.9878 28.509 22.2794C29.704 21.5713 30.6462 20.5996 31.3354 19.3635C32.0241 18.1277 32.369 16.7459 32.369 15.218C32.369 13.663 32.0241 12.2673 31.3354 11.031C30.6462 9.79562 29.704 8.82292 28.509 8.11478C27.3135 7.40645 25.9711 7.05238 24.4809 7.05238C22.99 7.05238 21.6474 7.41368 20.4526 8.13549C19.2569 8.85809 18.3223 9.83002 17.6474 11.0519C16.9724 12.2745 16.635 13.663 16.635 15.218C16.635 16.7459 16.9724 18.1277 17.6474 19.3635C18.3223 20.5996 19.2569 21.5713 20.4526 22.2794C21.6474 22.9878 22.99 23.342 24.4809 23.342ZM14.7789 36.3403C14.216 36.3403 13.7523 36.1592 13.3868 35.7987C13.0212 35.4374 12.8388 34.9794 12.8388 34.4238V15.1348C12.8663 12.9684 13.3936 11.0102 14.4204 9.26042C15.4466 7.5106 16.8313 6.13576 18.5753 5.13589C20.3187 4.13602 22.2874 3.63599 24.4809 3.63599C26.7021 3.63599 28.6918 4.14325 30.4497 5.15679C32.2069 6.17112 33.5988 7.54577 34.6256 9.28133C35.6518 11.0173 36.1654 12.9961 36.1654 15.218C36.1654 17.4124 35.6801 19.3842 34.7101 21.1342C33.7398 22.8836 32.425 24.2585 30.766 25.2585C29.1063 26.2582 27.2365 26.7582 25.1558 26.7582C23.3843 26.7582 21.7812 26.3977 20.3468 25.6753C18.9126 24.9533 17.7034 23.9812 16.7193 22.7588V34.4238C16.7193 34.9794 16.5434 35.4374 16.1921 35.7987C15.8401 36.1592 15.3694 36.3403 14.7789 36.3403Z" fill="white"/>
</svg>
