<svg width="177" height="37" viewBox="0 0 177 37" fill="none" xmlns="http://www.w3.org/2000/svg">
<path d="M57.1024 20.9593C58.1634 20.9593 59.115 20.7152 59.9568 20.2275C60.798 19.7397 61.4617 19.0666 61.9464 18.2083C62.431 17.3499 62.6739 16.3877 62.6739 15.3209C62.6739 14.237 62.431 13.2703 61.9464 12.4206C61.4617 11.5717 60.798 10.899 59.9568 10.4015C59.115 9.90462 58.1634 9.65567 57.1024 9.65567C56.0595 9.65567 55.1171 9.90462 54.2756 10.4015C53.4338 10.899 52.775 11.5717 52.2995 12.4206C51.8234 13.2703 51.5858 14.237 51.5858 15.3209C51.5858 16.3877 51.8234 17.3499 52.2995 18.2083C52.775 19.0666 53.4338 19.7397 54.2756 20.2275C55.1171 20.7152 56.0595 20.9593 57.1024 20.9593ZM50.5705 29.064C50.2409 29.064 49.9804 28.9692 49.7882 28.7797C49.5963 28.5899 49.5 28.3322 49.5 28.007V15.2129C49.5181 13.8031 49.8611 12.5339 50.5291 11.4042C51.1971 10.2752 52.1027 9.3847 53.2465 8.73437C54.3896 8.08368 55.6754 7.75851 57.1024 7.75851C58.5659 7.75851 59.8743 8.08823 61.027 8.748C62.18 9.40778 63.0898 10.3067 63.7579 11.4448C64.4255 12.5832 64.7597 13.8755 64.7597 15.3209C64.7597 16.7489 64.4347 18.0317 63.7855 19.1705C63.1355 20.3089 62.2526 21.2079 61.1368 21.8673C60.0206 22.5271 58.7581 22.8568 57.3495 22.8568C56.1232 22.8568 55.012 22.5994 54.0147 22.0841C53.0175 21.5694 52.217 20.8872 51.6135 20.0376V28.007C51.6135 28.3322 51.5172 28.5899 51.3253 28.7797C51.1331 28.9692 50.8814 29.064 50.5705 29.064Z" fill="#F3F3F3"/>
<path d="M69.9191 13.5864C69.974 12.4665 70.271 11.4634 70.8112 10.5778C71.3507 9.69212 72.0552 8.99668 72.9243 8.4904C73.7931 7.98482 74.7585 7.73168 75.8198 7.73168C76.6613 7.73168 77.3109 7.84916 77.7686 8.08377C78.2257 8.31908 78.3998 8.66243 78.2901 9.11381C78.2165 9.38444 78.0929 9.5659 77.9194 9.65611C77.7453 9.74667 77.5353 9.78268 77.2882 9.76415C77.0411 9.74667 76.7618 9.72849 76.451 9.71031C75.4261 9.6201 74.5163 9.72394 73.7205 10.0218C72.9243 10.3201 72.2931 10.7767 71.8265 11.391C71.3599 12.0054 71.1266 12.7375 71.1266 13.5864H69.9191ZM70.0837 22.7212C69.7545 22.7212 69.4978 22.6313 69.3155 22.4506C69.1321 22.2698 69.0408 22.0163 69.0408 21.6911V8.92431C69.0408 8.59879 69.1321 8.346 69.3155 8.16523C69.4978 7.98482 69.7545 7.89426 70.0837 7.89426C70.4133 7.89426 70.6693 7.98482 70.8523 8.16523C71.035 8.346 71.1266 8.59879 71.1266 8.92431V21.6911C71.1266 22.0163 71.035 22.2698 70.8523 22.4506C70.6693 22.6313 70.4133 22.7212 70.0837 22.7212Z" fill="#F3F3F3"/>
<path d="M87.4839 20.9594C88.5449 20.9594 89.4965 20.7154 90.3383 20.2276C91.1794 19.7399 91.8383 19.0717 92.3144 18.2217C92.7898 17.3724 93.0277 16.406 93.0277 15.3211C93.0277 14.2372 92.7898 13.2659 92.3144 12.4075C91.8383 11.5492 91.1794 10.8757 90.3383 10.3883C89.4965 9.89989 88.5449 9.65584 87.4839 9.65584C86.4226 9.65584 85.471 9.89989 84.6295 10.3883C83.7877 10.8757 83.1246 11.5492 82.6399 12.4075C82.1549 13.2659 81.9124 14.2372 81.9124 15.3211C81.9124 16.406 82.1549 17.3724 82.6399 18.2217C83.1246 19.0717 83.7877 19.7399 84.6295 20.2276C85.471 20.7154 86.4226 20.9594 87.4839 20.9594ZM87.4839 22.8569C86.0201 22.8569 84.712 22.5318 83.5593 21.8811C82.4066 21.2304 81.5007 20.336 80.8423 19.1976C80.1834 18.0591 79.8542 16.7672 79.8542 15.3211C79.8542 13.8575 80.1834 12.5565 80.8423 11.418C81.5007 10.2796 82.4066 9.38487 83.5593 8.73454C84.712 8.08385 86.0201 7.75868 87.4839 7.75868C88.9474 7.75868 90.2512 8.08385 91.395 8.73454C92.5381 9.38487 93.4395 10.2796 94.0983 11.418C94.7567 12.5565 95.0952 13.8575 95.1136 15.3211C95.1136 16.7672 94.7797 18.0591 94.1121 19.1976C93.4437 20.336 92.5381 21.2304 91.395 21.8811C90.2512 22.5318 88.9474 22.8569 87.4839 22.8569Z" fill="#F3F3F3"/>
<path d="M104.61 22.8569C103.53 22.8569 102.459 22.6765 101.398 22.315C100.337 21.9535 99.4772 21.4115 98.8187 20.6885C98.6169 20.4717 98.5348 20.2276 98.5716 19.9567C98.6081 19.6857 98.7454 19.4511 98.9833 19.2518C99.2393 19.0714 99.5048 18.999 99.7791 19.035C100.053 19.0714 100.282 19.1888 100.465 19.3874C100.905 19.8937 101.485 20.2818 102.208 20.5528C102.931 20.8245 103.731 20.9594 104.61 20.9594C105.963 20.9594 106.943 20.729 107.546 20.2689C108.15 19.8077 108.461 19.2518 108.479 18.6014C108.479 17.9508 108.168 17.4134 107.546 16.9882C106.924 16.5641 105.9 16.2344 104.472 15.9991C102.624 15.7106 101.27 15.204 100.41 14.4813C99.5501 13.7589 99.1207 12.9002 99.1207 11.9065C99.1207 10.9841 99.3674 10.2167 99.8616 9.602C100.355 8.98803 101.014 8.5272 101.838 8.21951C102.661 7.91218 103.567 7.75868 104.554 7.75868C105.78 7.75868 106.837 7.96672 107.725 8.38245C108.612 8.79817 109.33 9.3583 109.879 10.0628C110.062 10.2978 110.135 10.5415 110.099 10.7946C110.062 11.0481 109.916 11.2555 109.659 11.418C109.44 11.5446 109.188 11.5852 108.905 11.5401C108.621 11.4953 108.378 11.3638 108.177 11.1471C107.72 10.623 107.189 10.239 106.585 9.995C105.982 9.75129 105.286 9.62892 104.5 9.62892C103.493 9.62892 102.688 9.83241 102.084 10.239C101.481 10.6457 101.179 11.1565 101.179 11.7705C101.179 12.1866 101.293 12.5481 101.522 12.8551C101.751 13.1621 102.144 13.4334 102.702 13.668C103.26 13.9033 104.042 14.1015 105.049 14.2641C106.421 14.4813 107.505 14.8019 108.301 15.2263C109.097 15.6515 109.664 16.1483 110.003 16.7172C110.341 17.2864 110.51 17.9057 110.51 18.5742C110.51 19.4241 110.259 20.1692 109.756 20.8105C109.252 21.4521 108.557 21.9535 107.67 22.315C106.782 22.6765 105.762 22.8569 104.61 22.8569Z" fill="#F3F3F3"/>
<path d="M121.9 20.9593C122.961 20.9593 123.912 20.7152 124.754 20.2275C125.595 19.7397 126.259 19.0666 126.744 18.2083C127.228 17.3499 127.471 16.3877 127.471 15.3209C127.471 14.237 127.228 13.2703 126.744 12.4206C126.259 11.5717 125.595 10.899 124.754 10.4015C123.912 9.90462 122.961 9.65567 121.9 9.65567C120.857 9.65567 119.915 9.90462 119.073 10.4015C118.231 10.899 117.572 11.5717 117.097 12.4206C116.621 13.2703 116.383 14.237 116.383 15.3209C116.383 16.3877 116.621 17.3499 117.097 18.2083C117.572 19.0666 118.231 19.7397 119.073 20.2275C119.915 20.7152 120.857 20.9593 121.9 20.9593ZM115.368 29.064C115.039 29.064 114.778 28.9692 114.586 28.7797C114.394 28.5899 114.297 28.3322 114.297 28.007V15.2129C114.315 13.8031 114.659 12.5339 115.327 11.4042C115.994 10.2752 116.9 9.3847 118.044 8.73437C119.187 8.08368 120.473 7.75851 121.9 7.75851C123.363 7.75851 124.672 8.08823 125.825 8.748C126.977 9.40778 127.887 10.3067 128.555 11.4448C129.223 12.5832 129.557 13.8755 129.557 15.3209C129.557 16.7489 129.232 18.0317 128.583 19.1705C127.933 20.3089 127.05 21.2079 125.934 21.8673C124.818 22.5271 123.556 22.8568 122.147 22.8568C120.921 22.8568 119.809 22.5994 118.812 22.0841C117.815 21.5694 117.015 20.8872 116.411 20.0376V28.007C116.411 28.3322 116.315 28.5899 116.123 28.7797C115.931 28.9692 115.679 29.064 115.368 29.064Z" fill="#F3F3F3"/>
<path d="M142.944 22.3298C141.532 22.7749 140.183 22.8648 138.896 22.5973C137.609 22.3302 136.48 21.7519 135.511 20.8624C134.542 19.9732 133.832 18.8313 133.38 17.4373C132.924 16.0258 132.813 14.6901 133.049 13.43C133.285 12.1699 133.816 11.0675 134.644 10.1235C135.472 9.17907 136.557 8.49517 137.899 8.07175C139.223 7.65358 140.474 7.58645 141.651 7.86931C142.828 8.15252 143.856 8.73397 144.736 9.61332C145.616 10.493 146.274 11.6038 146.708 12.9465C146.797 13.222 146.781 13.4692 146.66 13.6874C146.538 13.9062 146.338 14.0594 146.06 14.1471L134.948 17.6537L134.414 16.0013L145.734 12.4286L144.869 13.5839C144.563 12.5804 144.09 11.743 143.451 11.0717C142.811 10.4014 142.066 9.95352 141.215 9.72835C140.365 9.50388 139.451 9.54549 138.476 9.85318C137.482 10.1668 136.685 10.6745 136.087 11.3755C135.488 12.0769 135.116 12.9014 134.97 13.8478C134.825 14.795 134.923 15.7936 135.263 16.8432C135.602 17.8932 136.134 18.7502 136.858 19.4131C137.581 20.0767 138.419 20.5141 139.371 20.7257C140.323 20.9375 141.322 20.8781 142.368 20.548C142.995 20.3501 143.592 20.0435 144.159 19.6274C144.725 19.2117 145.148 18.7795 145.425 18.331C145.566 18.1159 145.758 17.9656 145.999 17.8796C146.24 17.7943 146.471 17.7925 146.689 17.8754C146.982 18.0103 147.172 18.1974 147.259 18.4355C147.346 18.674 147.313 18.9121 147.159 19.1498C146.74 19.8134 146.138 20.4449 145.352 21.0435C144.566 21.6431 143.763 22.0714 142.944 22.3298Z" fill="#F3F3F3"/>
<path d="M151.705 13.5864C151.76 12.4665 152.057 11.4634 152.597 10.5778C153.136 9.69212 153.841 8.99668 154.71 8.4904C155.579 7.98482 156.544 7.73168 157.606 7.73168C158.447 7.73168 159.097 7.84916 159.554 8.08377C160.011 8.31908 160.185 8.66243 160.076 9.11381C160.002 9.38444 159.879 9.5659 159.705 9.65611C159.531 9.74667 159.321 9.78268 159.074 9.76415C158.827 9.74667 158.547 9.72849 158.237 9.71031C157.212 9.6201 156.302 9.72394 155.506 10.0218C154.71 10.3201 154.079 10.7767 153.612 11.391C153.146 12.0054 152.912 12.7375 152.912 13.5864H151.705ZM151.87 22.7212C151.54 22.7212 151.284 22.6313 151.101 22.4506C150.918 22.2698 150.827 22.0163 150.827 21.6911V8.92431C150.827 8.59879 150.918 8.346 151.101 8.16523C151.284 7.98482 151.54 7.89426 151.87 7.89426C152.199 7.89426 152.455 7.98482 152.638 8.16523C152.82 8.346 152.912 8.59879 152.912 8.92431V21.6911C152.912 22.0163 152.82 22.2698 152.638 22.4506C152.455 22.6313 152.199 22.7212 151.87 22.7212Z" fill="#F3F3F3"/>
<path d="M175.829 22.7214C175.518 22.7214 175.262 22.6267 175.061 22.4372C174.859 22.2476 174.759 21.9994 174.759 21.6917V17.0562L175.28 14.9149L176.9 15.3212V21.6917C176.9 21.9994 176.799 22.2476 176.598 22.4372C176.396 22.6267 176.14 22.7214 175.829 22.7214ZM169.27 20.9596C170.331 20.9596 171.278 20.7159 172.11 20.2278C172.943 19.7404 173.601 19.067 174.086 18.2082C174.571 17.3506 174.813 16.388 174.813 15.3212C174.813 14.2373 174.571 13.2706 174.086 12.421C173.601 11.572 172.943 10.899 172.11 10.4021C171.278 9.90493 170.331 9.65598 169.27 9.65598C168.227 9.65598 167.284 9.90493 166.443 10.4021C165.601 10.899 164.934 11.572 164.439 12.421C163.946 13.2706 163.698 14.2373 163.698 15.3212C163.698 16.388 163.946 17.3506 164.439 18.2082C164.934 19.067 165.601 19.7404 166.443 20.2278C167.284 20.7159 168.227 20.9596 169.27 20.9596ZM169.05 22.8574C167.641 22.8574 166.379 22.5274 165.263 21.8679C164.146 21.2082 163.263 20.3092 162.614 19.1708C161.965 18.032 161.64 16.7492 161.64 15.3212C161.64 13.8758 161.973 12.5835 162.641 11.4451C163.309 10.307 164.22 9.40808 165.373 8.74796C166.525 8.08853 167.825 7.75882 169.27 7.75882C170.715 7.75882 172.01 8.08853 173.153 8.74796C174.297 9.40808 175.202 10.307 175.871 11.4451C176.538 12.5835 176.881 13.8758 176.9 15.3212L176.049 15.9719C176.049 17.2733 175.742 18.4435 175.129 19.4823C174.516 20.5218 173.684 21.3438 172.632 21.9491C171.58 22.5546 170.385 22.8574 169.05 22.8574Z" fill="#F3F3F3"/>
<path d="M37.5 18.2714C37.5 28.3627 29.2173 36.543 19 36.543C8.78274 36.543 0.5 28.3627 0.5 18.2714C0.5 8.18024 8.78274 -0.000244141 19 -0.000244141C29.2173 -0.000244141 37.5 8.18024 37.5 18.2714Z" fill="#FFB728"/>
<path d="M24.981 23.3415C26.4711 23.3415 27.8135 22.9873 29.0091 22.2789C30.204 21.5708 31.1462 20.5991 31.8355 19.363C32.5242 18.1273 32.869 16.7454 32.869 15.2175C32.869 13.6625 32.5242 12.2668 31.8355 11.0305C31.1462 9.79514 30.204 8.82243 29.0091 8.11429C27.8135 7.40596 26.4711 7.0519 24.981 7.0519C23.49 7.0519 22.1474 7.41319 20.9527 8.13501C19.7569 8.8576 18.8223 9.82953 18.1474 11.0514C17.4724 12.274 17.1351 13.6625 17.1351 15.2175C17.1351 16.7454 17.4724 18.1273 18.1474 19.363C18.8223 20.5991 19.7569 21.5708 20.9527 22.2789C22.1474 22.9873 23.49 23.3415 24.981 23.3415ZM15.2789 36.3398C14.716 36.3398 14.2523 36.1587 13.8869 35.7982C13.5212 35.4369 13.3388 34.9789 13.3388 34.4233V15.1343C13.3663 12.9679 13.8936 11.0098 14.9204 9.25993C15.9466 7.51011 17.3313 6.13527 19.0753 5.1354C20.8187 4.13553 22.7875 3.6355 24.981 3.6355C27.2022 3.6355 29.1919 4.14276 30.9497 5.15631C32.707 6.17063 34.0988 7.54528 35.1256 9.28084C36.1518 11.0168 36.6654 12.9956 36.6654 15.2175C36.6654 17.4119 36.1801 19.3837 35.2101 21.1337C34.2399 22.8831 32.925 24.258 31.2661 25.258C29.6064 26.2577 27.7365 26.7577 25.6558 26.7577C23.8843 26.7577 22.2812 26.3972 20.8468 25.6748C19.4126 24.9528 18.2034 23.9807 17.2193 22.7583V34.4233C17.2193 34.9789 17.0435 35.4369 16.6921 35.7982C16.3401 36.1587 15.8695 36.3398 15.2789 36.3398Z" fill="white"/>
</svg>
