<svg width="166" height="166" viewBox="0 0 166 166" fill="none" xmlns="http://www.w3.org/2000/svg">
<g id="SDG-4">
<g clip-path="url(#clip0_325_6526)">
<path id="goal background" d="M-0.0488281 -0.0483398H166.048V166.049H-0.0488281V-0.0483398Z" fill="#C5192D"/>
<g id="ENG text &#38; graphics">
<path id="Vector" d="M21.9877 38.6398H12.3691V33.9478L20.6192 14.3978H27.6182V34.0651H30.7071V38.6398H27.6182V46.0688H21.9877V38.6398ZM21.9877 34.0651V20.6147L17.1393 34.0651H21.9877ZM43.6699 14.3748H48.7529V15.9296H45.8595V19.4118H48.1319V20.9528H45.8595V24.9732H48.7736V26.4843H43.6699V14.3748ZM49.9857 14.3748H52.84C55.7863 14.3748 56.6833 15.5547 56.6833 18.1422V22.5513C56.6833 25.2124 55.7633 26.4843 52.9297 26.4843H49.9857V14.3748ZM52.8699 24.9433C54.381 24.9433 54.4408 24.136 54.4408 22.6272V17.9927C54.4408 16.5414 54.2913 15.9434 52.8308 15.9434H52.1799V24.9433H52.8699ZM58.1599 22.5674V14.3748H60.3127V22.8204C60.3127 23.9704 60.4461 25.0031 61.5685 25.0031C62.6909 25.0031 62.8381 23.9727 62.8381 22.8204V14.3748H64.9771V22.5674C64.9771 25.0974 64.2733 26.6476 61.5685 26.6476C58.8637 26.6476 58.1599 25.1089 58.1599 22.5674ZM66.4399 22.6111V18.2917C66.4399 15.81 67.2219 14.2299 69.8899 14.2299C72.3716 14.2299 73.1651 15.6099 73.1651 17.7144V18.731H71.0399V17.6937C71.0399 16.6771 71.0238 15.8537 69.9037 15.8537C68.7836 15.8537 68.6617 16.7208 68.6617 17.8271V23.0757C68.6617 24.3913 68.9308 25.0192 69.9037 25.0192C70.9939 25.0192 71.0399 24.1659 71.0399 23.0895V21.9993H73.1628V22.9699C73.1628 25.1089 72.4452 26.6499 69.8876 26.6499C67.2219 26.6499 66.4399 24.9732 66.4399 22.6111ZM76.4311 14.3748H78.7932L81.2151 26.4843H79.1681L78.6897 23.6875H76.5806L76.0999 26.4843H74.0299L76.4311 14.3748ZM78.4505 22.2799L77.6271 17.1969L76.806 22.2799H78.4505ZM86.6799 18.7402V17.6937C86.6799 16.6771 86.6661 15.8537 85.5437 15.8537C84.4213 15.8537 84.304 16.7208 84.304 17.8271V23.0757C84.304 24.3913 84.5731 25.0192 85.5437 25.0192C86.6362 25.0192 86.6799 24.1659 86.6799 23.0895V21.9993H88.8028V22.9699C88.8028 25.0192 88.145 26.528 85.8289 26.6499V27.3974C86.9352 27.3974 87.6827 27.8919 87.6827 28.8188C87.6827 29.8791 86.7397 30.3276 85.6495 30.3276C85.2848 30.324 84.9224 30.269 84.5731 30.1643V29.2213C84.8344 29.3026 85.1067 29.343 85.3804 29.3409C85.9025 29.3409 86.3004 29.1914 86.3004 28.7889C86.3004 28.2507 85.6886 28.0552 84.9848 27.9816V26.62C82.7722 26.39 82.0845 24.7961 82.0845 22.6134V18.2917C82.0799 15.81 82.8757 14.2299 85.5299 14.2299C88.0116 14.2299 88.8028 15.6099 88.8028 17.7144V18.731L86.6799 18.7402ZM92.0849 14.3748H94.447L96.8689 26.4843H94.8196L94.3412 23.6875H92.2344L91.7399 26.4843H89.6699L92.0849 14.3748ZM92.5449 12.0748C92.1562 12.0748 92.0228 12.3048 92.0228 12.6889H90.9763C90.9763 11.6125 91.2753 10.8052 92.2459 10.8052C92.9796 10.8052 93.4718 11.4952 94.1158 11.4952C94.4585 11.4952 94.5942 11.2859 94.5942 10.8972H95.5809C95.5809 11.8379 95.4153 12.7809 94.4447 12.7809C93.6696 12.7901 93.1613 12.0863 92.5472 12.0863L92.5449 12.0748ZM94.102 22.2799L93.2809 17.1969L92.4575 22.2799H94.102ZM97.69 22.687V18.1399C97.69 15.6881 98.587 14.2299 101.188 14.2299C103.79 14.2299 104.673 15.6812 104.673 18.1399V22.687C104.673 25.1227 103.776 26.6476 101.188 26.6476C98.6008 26.6476 97.69 25.1388 97.69 22.687ZM102.43 23.1999V17.6339C102.43 16.6173 102.265 15.8537 101.188 15.8537C100.112 15.8537 99.9325 16.6173 99.9325 17.6339V23.1999C99.9325 24.2027 100.098 25.01 101.188 25.01C102.278 25.01 102.43 24.2119 102.43 23.1999ZM43.6699 34.1548H46.5265C49.4705 34.1548 50.3675 35.3347 50.3675 37.9222V42.3313C50.3675 44.9924 49.4475 46.2643 46.6162 46.2643H43.6699V34.1548ZM46.5564 44.7348C48.0652 44.7348 48.125 43.9275 48.125 42.4187V37.7727C48.125 36.3214 47.9755 35.7234 46.515 35.7234H45.8572V44.7233L46.5564 44.7348ZM51.9131 34.1548H56.9961V35.7096H54.1119V39.1918H56.3843V40.7328H54.1119V44.7532H57.026V46.2643H51.9131V34.1548ZM65.3543 46.4138C65.2697 46.4257 65.1843 46.4303 65.099 46.4276C62.4839 46.4299 61.6099 44.9188 61.6099 42.467V37.9199C61.6099 35.4681 62.5069 34.0099 65.1082 34.0099C67.7095 34.0099 68.5927 35.4612 68.5927 37.9199V42.4647C68.5927 44.1989 68.1327 45.4846 66.9183 46.0527C67.2639 46.4971 67.6713 46.8898 68.1281 47.2188L67.7095 48.6839C66.9689 48.3412 65.9523 47.3108 65.3543 46.4138ZM66.3548 42.9799V37.4139C66.3548 36.3973 66.1754 35.6337 65.099 35.6337C64.0226 35.6337 63.8432 36.3973 63.8432 37.4139V42.9799C63.8432 43.9827 64.0088 44.79 65.099 44.79C66.1892 44.79 66.3548 43.9919 66.3548 42.9799ZM70.0624 42.3474V34.1548H72.2152V42.6004C72.2152 43.7504 72.3509 44.7831 73.471 44.7831C74.5911 44.7831 74.7429 43.7527 74.7429 42.6004V34.1548H76.8796V42.3474C76.8796 44.8889 76.1781 46.4276 73.471 46.4276C70.7639 46.4276 70.0624 44.8889 70.0624 42.3474ZM80.2882 34.1548H82.6503L85.0699 46.2643H83.0229L82.5399 43.4675H80.4308L79.9386 46.2643H77.8686L80.2882 34.1548ZM82.3099 42.0599L81.4865 36.9769L80.6631 42.0599H82.3099ZM86.2199 34.1548H88.4187V44.7532H91.3627V46.2643H86.2199V34.1548ZM92.4874 34.1548H94.6701V46.2643H92.4874V34.1548ZM96.4641 34.1548H99.3299C102.274 34.1548 103.171 35.3347 103.171 37.9222V42.3313C103.171 44.9924 102.251 46.2643 99.4196 46.2643H96.4641V34.1548ZM99.3506 44.7348C100.859 44.7348 100.919 43.9275 100.919 42.4187V37.7727C100.919 36.3214 100.77 35.7234 99.3092 35.7234H98.6629V44.7233L99.3506 44.7348ZM106.437 34.1548H108.799L111.221 46.2643H109.172L108.693 43.4675H106.584L106.092 46.2643H104.022L106.437 34.1548ZM108.454 42.0599L107.633 36.9769L106.809 42.0599H108.454ZM112.355 34.1548H115.211C118.158 34.1548 119.055 35.3347 119.055 37.9222V42.3313C119.055 44.9924 118.135 46.2643 115.301 46.2643H112.355V34.1548ZM115.241 44.7348C116.75 44.7348 116.81 43.9275 116.81 42.4187V37.7727C116.81 36.3214 116.663 35.7234 115.211 35.7234H114.554V44.7233L115.241 44.7348ZM120.607 34.1548H125.69V35.7096H122.806V39.1918H125.09V40.7328H122.818V44.7532H125.732V46.2643H120.607V34.1548ZM73.5607 89.0374L43.6331 71.7575V127.659L73.5607 136.687V89.0374ZM76.852 89.1524V136.707L106.973 127.652V71.7598L76.852 89.1524ZM123.383 126.668L126.925 139.042L130.463 126.668V76.9325H123.383V126.668Z" fill="white"/>
<path id="Vector_2" d="M113.398 74.1588L110.192 71.6242V129.175L76.9385 139.918H73.5598L40.4559 130.67V71.6242L37.2451 74.1588V132.922L73.408 142.933H77.0903L110.452 132.34L113.398 131.473V74.1588ZM130.464 70.35C130.476 69.8774 130.394 69.4072 130.221 68.9671C130.048 68.527 129.79 68.1258 129.46 67.7873C129.13 67.4488 128.735 67.1798 128.3 66.9961C127.864 66.8124 127.396 66.7178 126.923 66.7178C126.451 66.7178 125.983 66.8124 125.547 66.9961C125.111 67.1798 124.717 67.4488 124.387 67.7873C124.057 68.1258 123.798 68.527 123.626 68.9671C123.453 69.4072 123.37 69.8774 123.382 70.35V74.168H130.464V70.35Z" fill="white"/>
</g>
</g>
</g>
<defs>
<clipPath id="clip0_325_6526">
<rect x="0.200195" y="0.200195" width="165.6" height="165.6" rx="14.72" fill="white"/>
</clipPath>
</defs>
</svg>
