<svg width="167" height="166" viewBox="0 0 167 166" fill="none" xmlns="http://www.w3.org/2000/svg">
<g id="SDG-3">
<g clip-path="url(#clip0_325_6531)">
<path id="goal background" d="M0.351562 -0.0483398H166.448V166.049H0.351562V-0.0483398Z" fill="#4C9F38"/>
<g id="ENG text &#38; graphics">
<path id="Vector" d="M13.1602 37.0371V35.9423H19.1816V37.0003C19.2299 40.0869 19.7681 41.5336 21.7599 41.5336C23.7931 41.5336 24.2232 39.9696 24.2232 36.9589C24.2232 33.7918 23.4803 31.9932 20.7042 31.915C20.3538 31.8743 20.0008 31.8612 19.6485 31.8759V27.4576H20.5869C23.4021 27.4576 24.2232 26.0109 24.2232 22.7656C24.2232 20.2356 23.6367 18.7774 21.6426 18.7774C19.6485 18.7774 19.2299 20.4978 19.1816 22.9703V24.3779H13.1602V22.6483C13.1602 17.0961 16.2882 13.9681 21.6449 13.9681C27.0407 13.9681 30.1687 16.9397 30.1687 22.4528C30.1687 26.1673 28.4483 28.7479 26.1805 29.3735C28.4805 30.2337 30.1687 32.3451 30.1687 36.8416C30.1687 42.5916 27.8687 46.6166 21.684 46.6166C15.3498 46.6166 13.1602 42.7848 13.1602 37.0371ZM43.7617 22.9565L45.6615 22.5816C45.7213 24.0168 46.064 24.9437 47.0415 24.9437C47.7315 24.9437 48.042 24.4653 48.042 23.8075C48.042 22.761 47.5038 22.1791 46.7126 21.4914L45.1877 20.1597C44.3206 19.4122 43.7824 18.575 43.7824 17.2295C43.7824 15.3159 44.9784 14.2395 46.9058 14.2395C49.1782 14.2395 49.8222 15.7644 49.9418 17.5285L48.042 17.8574C47.9983 16.7212 47.8327 15.8702 46.8621 15.8702C46.2043 15.8702 45.8455 16.3624 45.8455 17.0064C45.8455 17.8275 46.1882 18.276 46.8322 18.8303L48.341 20.1597C49.3277 21.013 50.1511 22.0733 50.1511 23.6741C50.1511 25.4221 48.9252 26.648 47.1151 26.648C44.8979 26.6503 43.8514 25.3623 43.7617 22.9565ZM53.1204 14.3752H55.4825L57.9044 26.4847H55.8574L55.379 23.6879H53.2699L52.7777 26.4847H50.7077L53.1204 14.3752ZM55.1398 22.2803L54.3164 17.1973L53.4999 22.2803H55.1398ZM58.8911 22.5678V14.3752H61.0439V22.8208C61.0439 23.9708 61.1796 25.0035 62.2997 25.0035C63.4198 25.0035 63.5716 23.9731 63.5716 22.8208V14.3752H65.7083V22.5678C65.7083 25.0978 65.0068 26.648 62.2997 26.648C59.5926 26.648 58.8911 25.1093 58.8911 22.5678ZM62.5987 10.5503H64.6687L62.8839 13.5403H61.7017L62.5987 10.5503ZM67.3689 14.3752H70.2232C73.1695 14.3752 74.0665 15.5551 74.0665 18.1426V22.5517C74.0665 25.2128 73.1465 26.4847 70.3129 26.4847H67.3689V14.3752ZM70.2531 24.9437C71.7642 24.9437 71.824 24.1364 71.824 22.6276V17.9931C71.824 16.5418 71.6745 15.9438 70.214 15.9438H69.5562V24.9437H70.2531ZM75.6213 14.3752H80.7043V15.93H77.8178V19.4122H80.0902V20.9532H77.8178V24.9736H80.7342V26.4847H75.6213V14.3752ZM85.5021 14.3752H90.5851V15.93H87.7009V19.4122H89.9733V20.9532H87.7009V24.9736H90.615V26.4847H85.5021V14.3752ZM44.0699 34.1552H47.0599C49.1828 34.1552 50.6042 34.8728 50.6042 37.2648C50.6042 38.7437 49.9901 39.5648 48.8539 39.7465C50.2753 40.0156 50.9469 41.0322 50.9469 42.7365C50.9469 45.0526 49.8107 46.2647 47.5682 46.2647H44.0699V34.1552ZM47.03 39.1025C48.3456 39.1025 48.6906 38.5206 48.6906 37.2947C48.6906 36.009 48.0627 35.6847 46.7172 35.6847H46.2687V39.0933L47.03 39.1025ZM47.1197 44.7099C48.4652 44.7099 48.8401 44.082 48.8401 42.7204C48.8401 41.2852 48.3617 40.6274 47.0461 40.6274H46.2687V44.7099H47.1197ZM52.3131 34.1552H57.3961V35.71H54.5119V39.1922H56.7843V40.7332H54.5119V44.7536H57.426V46.2647H52.3131V34.1552ZM58.8175 34.1552H61.1037L62.8241 42.541L64.602 34.1552H66.8399L67.0699 46.2647H65.4254L65.246 37.8467L63.5279 46.2647H62.1962L60.4482 37.8168L60.2826 46.2647H58.6243L58.8175 34.1552ZM68.7144 40.6803H72.3162V42.0603H68.7144V40.6803ZM74.0067 34.1552H79.0897V35.71H76.2032V39.1922H78.4756V40.7332H76.2032V44.7536H79.1196V46.2647H74.0067V34.1552ZM80.0304 42.7365L81.9302 42.3616C81.99 43.7968 82.3327 44.7237 83.3102 44.7237C84.0117 44.7237 84.3107 44.2453 84.3107 43.5875C84.3107 42.541 83.7725 41.9591 82.9813 41.2714L81.4564 39.9397C80.5893 39.1922 80.0511 38.355 80.0511 37.0095C80.0511 35.0959 81.2471 34.0195 83.1745 34.0195C85.4469 34.0195 86.0909 35.5444 86.2105 37.3085L84.3107 37.6374C84.267 36.5012 84.1014 35.6502 83.1308 35.6502C82.473 35.6502 82.1142 36.1424 82.1142 36.7864C82.1142 37.6075 82.4569 38.056 83.1009 38.6103L84.6097 39.9397C85.5964 40.793 86.4198 41.8533 86.4198 43.4541C86.4198 45.2021 85.1939 46.428 83.3838 46.428C81.1666 46.4303 80.1201 45.1423 80.0304 42.7365ZM88.8509 35.7836H86.9235V34.1552H92.9472V35.7836H91.0635V46.2647H88.8509V35.7836ZM95.4887 34.1552H97.8508L100.273 46.2647H98.2257L97.7473 43.4679H95.6382L95.146 46.2647H93.076L95.4887 34.1552ZM97.5081 42.0603L96.6847 36.9773L95.8636 42.0603H97.5081ZM101.409 34.1552H104.33C106.752 34.1552 108.127 34.9326 108.127 37.3752C108.127 38.8265 107.768 39.8431 106.632 40.3054L108.32 46.2716H106.108L104.659 40.724H103.612V46.2716H101.409V34.1552ZM104.309 39.3417C105.581 39.3417 106.043 38.7897 106.043 37.4879C106.043 36.262 105.701 35.664 104.433 35.664H103.612V39.344L104.309 39.3417ZM139.444 103.852C139.444 99.1578 136.431 95.3421 131.868 95.3421C129.586 95.3421 126.833 97.8399 125.34 99.3763C123.845 97.8376 121.274 95.3375 118.992 95.3375C114.429 95.3375 111.232 99.144 111.232 103.848C111.224 106.091 112.093 108.249 113.654 109.86L125.35 121.578L137.029 109.874C138.589 108.259 139.456 106.098 139.444 103.852Z" fill="white"/>
<path id="Vector_2" d="M89.6448 140.71H89.5275C89.0953 140.683 88.6848 140.511 88.3625 140.222C88.0403 139.932 87.8251 139.543 87.7519 139.116L81.811 104.513L72.8203 121.199C72.6282 121.554 72.329 121.84 71.9653 122.015C71.6015 122.191 71.1917 122.247 70.7941 122.176C70.3965 122.106 70.0313 121.911 69.7505 121.621C69.4697 121.331 69.2876 120.959 69.23 120.56L65.4005 93.8566L58.4084 109.556C58.259 109.898 58.0135 110.188 57.7019 110.392C57.3903 110.596 57.0261 110.706 56.6535 110.706H29.4859C29.2337 110.706 28.984 110.657 28.751 110.56C28.518 110.464 28.3063 110.322 28.1279 110.144C27.9496 109.966 27.8081 109.754 27.7116 109.521C27.6151 109.288 27.5654 109.038 27.5654 108.786C27.5654 108.534 27.6151 108.284 27.7116 108.051C27.8081 107.818 27.9496 107.606 28.1279 107.428C28.3063 107.25 28.518 107.108 28.751 107.012C28.984 106.915 29.2337 106.865 29.4859 106.865H55.4069L64.607 86.2137C64.7767 85.8335 65.0655 85.5188 65.4297 85.3169C65.7939 85.1151 66.2139 85.0371 66.6263 85.0947C67.0387 85.1524 67.4212 85.3425 67.7162 85.6364C68.0111 85.9303 68.2026 86.3121 68.2617 86.7243L72.2016 114.258L81.0773 97.8034C81.2669 97.4516 81.5616 97.1677 81.9202 96.9913C82.2789 96.815 82.6836 96.7548 83.078 96.8194C83.4724 96.884 83.8369 97.07 84.1206 97.3515C84.4043 97.633 84.5931 97.996 84.6607 98.3899L90.1623 130.436L110.214 63.8278C110.325 63.457 110.546 63.1286 110.847 62.8855C111.149 62.6425 111.516 62.4962 111.902 62.4659C112.288 62.4355 112.675 62.5225 113.01 62.7155C113.346 62.9085 113.615 63.1984 113.783 63.5472L124.34 85.4087C124.45 85.636 124.513 85.8827 124.528 86.1345C124.542 86.3864 124.506 86.6386 124.423 86.8768C124.34 87.1149 124.21 87.3343 124.042 87.5224C123.874 87.7106 123.671 87.8638 123.443 87.9732C123.216 88.0827 122.969 88.1464 122.717 88.1606C122.466 88.1747 122.213 88.1392 121.975 88.0559C121.737 87.9726 121.518 87.8432 121.33 87.6751C121.141 87.507 120.988 87.3035 120.879 87.0762L112.465 69.6606L91.4848 139.351C91.3641 139.744 91.1202 140.089 90.7889 140.334C90.4577 140.578 90.0566 140.71 89.6448 140.71Z" fill="white"/>
</g>
</g>
</g>
<defs>
<clipPath id="clip0_325_6531">
<rect x="0.599609" y="0.200195" width="165.6" height="165.6" rx="14.72" fill="white"/>
</clipPath>
</defs>
</svg>
