<svg width="167" height="166" viewBox="0 0 167 166" fill="none" xmlns="http://www.w3.org/2000/svg">
<g id="SDG-8">
<g clip-path="url(#clip0_325_6549)">
<path id="goal background" d="M0.552734 -0.0483398H166.65V166.049H0.552734V-0.0483398Z" fill="#A21942"/>
<g id="ENG text &#38; graphics">
<path id="Vector" d="M13.4788 36.77C13.5179 33.3683 14.73 30.6704 17.1933 29.41C15.4729 28.1588 14.0262 25.96 13.948 22.4502C13.8698 17.22 16.6068 14 21.9612 14C27.3156 14 30.0112 17.2453 29.8985 22.4456C29.8203 26.0037 28.4518 28.1956 26.7314 29.4054C29.1556 30.6566 30.4114 33.3545 30.4459 36.7654C30.5632 42.5522 28.2563 46.5404 21.9612 46.5404C15.7075 46.5381 13.4512 42.5499 13.4788 36.77ZM24.505 37.161C24.5441 34.631 24.2313 32.078 21.975 32.078C19.7463 32.078 19.3944 34.6195 19.3944 37.161C19.3829 39.3 19.6612 42.0416 21.9612 42.0416C24.2612 42.0416 24.505 39.2655 24.505 37.1541V37.161ZM24.1922 22.257C24.1922 20.0674 23.4884 18.5425 21.9635 18.5425C20.3995 18.5425 19.6635 20.0674 19.6635 22.257C19.6635 25.3068 20.3282 27.1445 21.9635 27.1445C23.5712 27.1445 24.1922 25.3068 24.1922 22.257ZM43.6318 16.0033H41.7044V14.3749H47.7212V16.0033H45.8375V26.4844H43.6249L43.6318 16.0033ZM48.4457 14.3749H51.3621C53.784 14.3749 55.1594 15.1523 55.1594 17.5949C55.1594 19.0462 54.8006 20.0628 53.6644 20.5251L55.3526 26.4913H53.14L51.691 20.9437H50.6445V26.4913H48.4457V14.3749ZM51.346 19.5614C52.6179 19.5614 53.0802 19.0094 53.0802 17.7076C53.0802 16.4817 52.7375 15.8837 51.4702 15.8837H50.6491V19.5637L51.346 19.5614ZM58.2529 14.3749H60.615L63.0369 26.4844H60.9899L60.5115 23.6876H58.4024L57.9102 26.4844H55.8402L58.2529 14.3749ZM60.2723 22.28L59.4512 17.1993L58.6278 22.28H60.2723ZM63.8603 14.3749H66.8503C68.9732 14.3749 70.3923 15.0925 70.3923 17.4845C70.3923 18.9634 69.7805 19.7845 68.6443 19.9662C70.0634 20.2353 70.7373 21.2519 70.7373 22.9562C70.7373 25.2723 69.6011 26.4844 67.3586 26.4844H63.8603V14.3749ZM66.8112 19.3222C68.1268 19.3222 68.4695 18.7403 68.4695 17.5144C68.4695 16.2287 67.8416 15.9044 66.4961 15.9044H66.0476V19.3222H66.8112ZM66.9009 24.9296C68.2464 24.9296 68.619 24.3017 68.619 22.9401C68.619 21.5049 68.1406 20.8471 66.825 20.8471H66.0476V24.9296H66.9009ZM73.5916 14.3749H75.9537L78.3756 26.4844H76.3286L75.8502 23.6876H73.7411L73.2512 26.4844H71.1812L73.5916 14.3749ZM75.611 22.28L74.7876 17.197L73.9665 22.28H75.611ZM79.199 14.3749H81.3955V24.9733H84.3418V26.4844H79.199V14.3749ZM85.133 14.3749H87.3318V19.4349H89.7974V14.3749H92.01V26.4844H89.7974V21.0127H87.3318V26.4844H85.133V14.3749ZM93.2796 22.6871V18.14C93.2796 15.6882 94.1766 14.23 96.7802 14.23C99.3838 14.23 100.262 15.6813 100.262 18.14V22.6871C100.262 25.1228 99.3654 26.6477 96.7802 26.6477C94.195 26.6477 93.2796 25.1389 93.2796 22.6871ZM98.0199 23.2V17.634C98.0199 16.6174 97.8566 15.8538 96.7802 15.8538C95.7038 15.8538 95.5244 16.6174 95.5244 17.634V23.2C95.5244 24.2028 95.6877 25.0101 96.7802 25.0101C97.8727 25.0101 98.0199 24.212 98.0199 23.2ZM104.747 14.3749H107.602C110.548 14.3749 111.445 15.5548 111.445 18.1423V22.5514C111.445 25.2125 110.525 26.4844 107.691 26.4844H104.747V14.3749ZM107.632 24.9434C109.143 24.9434 109.203 24.1361 109.203 22.6273V17.9928C109.203 16.5415 109.053 15.9435 107.593 15.9435H106.935V24.9434H107.632ZM112.685 14.3749H117.768V15.9297H114.881V19.4119H117.154V20.9529H114.881V24.9733H117.795V26.4844H112.685V14.3749ZM118.501 22.6112V18.2918C118.501 15.8101 119.293 14.2392 121.951 14.2392C124.435 14.23 125.231 15.61 125.231 17.7237V18.7403H123.108V17.6938C123.108 16.6772 123.092 15.8538 121.972 15.8538C120.852 15.8538 120.73 16.7209 120.73 17.8272V23.0758C120.73 24.3914 120.999 25.0193 121.972 25.0193C123.062 25.0193 123.108 24.166 123.108 23.0896V21.9994H125.231V22.97C125.231 25.109 124.514 26.65 121.956 26.65C119.293 26.65 118.501 24.9733 118.501 22.6112ZM126.381 14.3749H131.464V15.9297H128.578V19.4119H130.85V20.9529H128.578V24.9733H131.492V26.4844H126.381V14.3749ZM132.389 14.3749H133.93L136.874 21.2749V14.3749H138.698V26.4844H137.233L134.273 19.2486V26.4844H132.389V14.3749ZM141.359 16.0033H139.431V14.3749H145.455V16.0033H143.571V26.4844H141.359V16.0033ZM146.173 14.3749H151.256V15.9297H148.372V19.4119H150.644V20.9529H148.372V24.9733H151.286V26.4844H146.173V14.3749ZM42.4312 34.1549H47.5142V35.7097H44.6185V39.1919H46.8909V40.7329H44.6185V44.7533H47.5349V46.2644H42.4312V34.1549ZM51.4817 42.3912V38.0718C51.4817 35.5901 52.2729 34.0192 54.9317 34.0192C57.4134 34.0192 58.2069 35.3992 58.2069 37.5037V38.5203H56.084V37.4738C56.084 36.4572 56.0679 35.6338 54.9478 35.6338C53.8277 35.6338 53.7058 36.5009 53.7058 37.6072V42.8558C53.7058 44.1714 53.9749 44.7993 54.9478 44.7993C56.038 44.7993 56.084 43.946 56.084 42.8696V41.7794H58.2069V42.75C58.2069 44.889 57.4893 46.43 54.9317 46.43C52.2729 46.43 51.4817 44.7533 51.4817 42.3912ZM59.3592 34.1549H62.2756C64.6975 34.1549 66.0729 34.9323 66.0729 37.3749C66.0729 38.8262 65.7141 39.8428 64.5779 40.3051L66.2661 46.2713H64.0512L62.6022 40.7237H61.5557V46.2713H59.3592V34.1549ZM62.2595 39.3414C63.5314 39.3414 63.9937 38.7894 63.9937 37.4876C63.9937 36.2617 63.651 35.6637 62.3837 35.6637H61.5626V39.3437L62.2595 39.3414ZM67.3586 34.1549H72.4416V35.7097H69.5551V39.1919H71.8275V40.7329H69.5551V44.7533H72.4715V46.2644H67.3586V34.1549ZM73.0695 42.7362L74.967 42.3613C75.0268 43.7965 75.3718 44.7234 76.347 44.7234C77.0508 44.7234 77.3498 44.245 77.3498 43.5872C77.3498 42.5407 76.8116 41.9588 76.0181 41.2711L74.4932 39.9394C73.6261 39.1919 73.0879 38.3547 73.0879 37.0092C73.0879 35.0956 74.2839 34.0192 76.2136 34.0192C78.486 34.0192 79.1277 35.5441 79.2473 37.3082L77.3498 37.6371C77.3038 36.5009 77.1405 35.6499 76.1676 35.6499C75.5098 35.6499 75.151 36.1421 75.151 36.7861C75.151 37.6072 75.496 38.0557 76.1377 38.61L77.6488 39.9394C78.6355 40.7927 79.4566 41.853 79.4566 43.4538C79.4566 45.2018 78.2307 46.4277 76.4229 46.4277C74.2057 46.43 73.1592 45.142 73.0695 42.7362ZM80.1696 42.3912V38.0718C80.1696 35.5901 80.9631 34.0192 83.6196 34.0192C86.1013 34.0192 86.8925 35.3992 86.8925 37.5037V38.5203H84.7742V37.4738C84.7742 36.4572 84.7604 35.6338 83.638 35.6338C82.5156 35.6338 82.3983 36.5009 82.3983 37.6072V42.8558C82.3983 44.1714 82.6674 44.7993 83.638 44.7993C84.7305 44.7993 84.7742 43.946 84.7742 42.8696V41.7794H86.8971V42.75C86.8971 44.889 86.1795 46.43 83.6242 46.43C80.9631 46.43 80.1696 44.7533 80.1696 42.3912ZM88.1092 34.1549H90.2919V46.2644H88.1092V34.1549ZM91.9502 34.1549H94.2364L95.9568 42.5407L97.737 34.1549H99.9634L100.193 46.2644H98.5512L98.3718 37.8464L96.6514 46.2644H95.322L93.5717 37.8165L93.4061 46.2644H91.7478L91.9502 34.1549ZM101.592 34.1549H106.677V35.7097H103.791V39.1919H106.063V40.7329H103.791V44.7533H106.707V46.2644H101.592V34.1549ZM107.602 34.1549H109.143L112.087 41.0549V34.1549H113.911V46.2644H112.446L109.485 39.0286V46.2644H107.602V34.1549ZM116.572 35.7833H114.651V34.1549H120.675V35.7833H118.791V46.2644H116.579L116.572 35.7833ZM121.133 42.4671V37.92C121.133 35.4682 122.03 34.01 124.631 34.01C127.232 34.01 128.113 35.4613 128.113 37.92V42.4648C128.113 44.9005 127.216 46.4254 124.631 46.4254C122.046 46.4254 121.133 44.9189 121.133 42.4671ZM125.871 42.9892V37.414C125.871 36.3974 125.707 35.6338 124.631 35.6338C123.555 35.6338 123.375 36.3974 123.375 37.414V42.98C123.375 43.9828 123.538 44.7901 124.631 44.7901C125.723 44.7901 125.871 43.992 125.871 42.98V42.9892ZM42.4312 53.9349H47.5142V55.4897H44.6185V58.9719H46.8909V60.5129H44.6185V64.5333H47.5349V66.0444H42.4312V53.9349ZM48.2364 62.1712V57.8518C48.2364 55.3701 49.0299 53.7992 51.6864 53.7992C54.1681 53.7992 54.9593 55.1792 54.9593 57.2837V58.3003H52.8364V57.2538C52.8364 56.2372 52.8226 55.4138 51.7002 55.4138C50.5778 55.4138 50.4605 56.2809 50.4605 57.3872V62.6358C50.4605 63.9514 50.7296 64.5793 51.7002 64.5793C52.7927 64.5793 52.8364 63.726 52.8364 62.6496V61.5594H54.9593V62.53C54.9593 64.669 54.2417 66.21 51.6864 66.21C49.0299 66.21 48.2364 64.5333 48.2364 62.1712ZM55.9207 62.2471V57.7C55.9207 55.2482 56.8177 53.79 59.419 53.79C62.0203 53.79 62.9012 55.2505 62.9012 57.7V62.2448C62.9012 64.6805 62.0042 66.2054 59.4167 66.2054C56.8292 66.2054 55.9207 64.6989 55.9207 62.2471ZM60.661 62.76V57.194C60.661 56.1774 60.4954 55.4138 59.419 55.4138C58.3426 55.4138 58.1632 56.1774 58.1632 57.194V62.76C58.1632 63.7628 58.3288 64.5701 59.419 64.5701C60.5092 64.5701 60.661 63.772 60.661 62.76ZM64.1432 53.9349H65.6842L68.6282 60.8349V53.9349H70.4521V66.0444H68.987L66.0269 58.8086V66.0444H64.1432V53.9349ZM71.7079 62.2471V57.7C71.7079 55.2482 72.6049 53.79 75.2062 53.79C77.8075 53.79 78.6907 55.2413 78.6907 57.7V62.2448C78.6907 64.6805 77.7937 66.2054 75.2062 66.2054C72.6187 66.2054 71.7079 64.6989 71.7079 62.2471ZM74.2793 50.2273H76.1032L77.4832 52.9873H75.9744L75.197 51.1933L74.4334 52.9873H72.9384L74.2793 50.2273ZM76.4482 62.76V57.194C76.4482 56.1774 76.2826 55.4138 75.2062 55.4138C74.1298 55.4138 73.9412 56.1774 73.9412 57.194V62.76C73.9412 63.7628 74.1068 64.5701 75.197 64.5701C76.2872 64.5701 76.4482 63.772 76.4482 62.76ZM80.1098 53.9349H82.3983L84.1164 62.3207L85.9012 53.9349H88.1276L88.3576 66.0444H86.7131L86.5337 57.6264L84.8133 66.0444H83.4839L81.7336 57.5965L81.5703 66.0444H79.9097L80.1098 53.9349ZM89.8112 53.9349H91.9939V66.0444H89.8112V53.9349ZM93.2819 62.1712V57.8518C93.2819 55.3701 94.0731 53.7992 96.7319 53.7992C99.2136 53.7992 100.007 55.1792 100.007 57.2837V58.3003H97.8842V57.2538C97.8842 56.2372 97.8681 55.4138 96.748 55.4138C95.6279 55.4138 95.506 56.2809 95.506 57.3872V62.6358C95.506 63.9514 95.7751 64.5793 96.748 64.5793C97.8382 64.5793 97.8842 63.726 97.8842 62.6496V61.5594H100.007V62.53C100.007 64.669 99.2895 66.21 96.7319 66.21C94.0731 66.21 93.2819 64.5333 93.2819 62.1712ZM100.966 62.2471V57.7C100.966 55.2482 101.863 53.79 104.465 53.79C107.066 53.79 107.947 55.2413 107.947 57.7V62.2448C107.947 64.6805 107.05 66.2054 104.465 66.2054C101.879 66.2054 100.966 64.6989 100.966 62.2471ZM105.704 62.76V57.194C105.704 56.1774 105.541 55.4138 104.465 55.4138C103.388 55.4138 103.209 56.1774 103.209 57.194V62.76C103.209 63.7628 103.372 64.5701 104.465 64.5701C105.557 64.5701 105.704 63.772 105.704 62.76ZM114.764 86.9353L97.921 102.959C97.2839 103.592 96.9596 104.057 96.9596 105.365V150.273C96.9599 150.399 96.985 150.523 97.0335 150.64C97.082 150.756 97.1529 150.861 97.2421 150.95C97.3314 151.039 97.4373 151.11 97.5538 151.157C97.6703 151.205 97.7951 151.23 97.921 151.23H115.318C115.572 151.23 115.816 151.129 115.996 150.949C116.175 150.77 116.277 150.527 116.277 150.273V87.3401C116.277 86.8111 115.863 85.8428 114.764 86.9353ZM66.2408 107.812L49.3933 123.832C48.7608 124.467 48.4342 124.931 48.4342 126.235V150.273C48.4354 150.527 48.5369 150.77 48.7166 150.949C48.8962 151.128 49.1395 151.229 49.3933 151.23H66.7928C67.047 151.23 67.2908 151.129 67.471 150.95C67.6511 150.77 67.753 150.527 67.7542 150.273V108.213C67.7542 107.684 67.3356 106.713 66.2408 107.812Z" fill="white"/>
<path id="Vector_2" d="M122.42 67.5048C122.423 67.4375 122.411 67.3703 122.386 67.3077C122.362 67.2451 122.324 67.1884 122.275 67.1414C122.192 67.06 122.081 67.0111 121.965 67.0034H121.735L108.836 69.9129L108.606 69.9382C108.512 69.9579 108.426 70.0033 108.356 70.0693C108.265 70.1614 108.215 70.2853 108.215 70.4143C108.215 70.5434 108.265 70.6673 108.356 70.7593L108.501 70.9042L111.447 73.8482L82.2209 103.093L68.7198 89.594C68.6841 89.5574 68.6413 89.5283 68.5941 89.5084C68.5469 89.4885 68.4962 89.4782 68.445 89.4782C68.3938 89.4782 68.3431 89.4885 68.2959 89.5084C68.2487 89.5283 68.2059 89.5574 68.1702 89.594L64.5108 93.2556L42.8678 114.894C42.796 114.968 42.7559 115.066 42.7559 115.169C42.7559 115.272 42.796 115.37 42.8678 115.444L46.5363 119.11C46.572 119.146 46.6145 119.174 46.6613 119.194C46.7081 119.213 46.7582 119.223 46.8089 119.223C46.8596 119.223 46.9097 119.213 46.9565 119.194C47.0033 119.174 47.0457 119.146 47.0814 119.11L68.4484 97.7475L78.2442 107.543C78.2522 107.56 78.2623 107.575 78.2741 107.589L81.938 111.249C81.9737 111.285 82.0165 111.314 82.0637 111.334C82.1109 111.354 82.1616 111.364 82.2128 111.364C82.264 111.364 82.3147 111.354 82.3619 111.334C82.4091 111.314 82.4519 111.285 82.4877 111.249L115.656 78.0802L118.749 81.1714C118.816 81.2378 118.9 81.2836 118.992 81.3031C119.083 81.3227 119.179 81.3152 119.267 81.2816C119.354 81.248 119.43 81.1898 119.485 81.1139C119.541 81.038 119.573 80.9477 119.577 80.854V80.8126L122.409 67.6474L122.42 67.5048Z" fill="white"/>
<path id="Vector_3" d="M90.5983 110.623L82.4517 118.841C82.3773 118.903 82.2824 118.935 82.1855 118.931C82.0886 118.927 81.9966 118.888 81.9273 118.82L74.5397 111.29C73.1873 109.942 72.8975 111.034 72.8975 111.563V150.27C72.8969 150.396 72.921 150.52 72.9686 150.636C73.0161 150.752 73.0861 150.858 73.1746 150.947C73.263 151.036 73.3682 151.107 73.484 151.155C73.5999 151.204 73.7241 151.229 73.8497 151.229H91.2538C91.5076 151.228 91.7506 151.126 91.9298 150.947C92.1091 150.767 92.21 150.524 92.2106 150.27V110.926C92.2106 110.397 91.7943 109.427 90.6006 110.623" fill="white"/>
</g>
</g>
</g>
<defs>
<clipPath id="clip0_325_6549">
<rect x="0.800781" y="0.200195" width="165.6" height="165.6" rx="14.72" fill="white"/>
</clipPath>
</defs>
</svg>
