<svg width="166" height="166" viewBox="0 0 166 166" fill="none" xmlns="http://www.w3.org/2000/svg">
<g id="SDG-2">
<g clip-path="url(#clip0_325_6536)">
<path id="goal background" d="M-0.249023 -0.0483398H165.848V166.049H-0.249023V-0.0483398Z" fill="#DDA83A"/>
<g id="ENG text &#38; graphics">
<path id="Vector" d="M12.6768 41.8065L20.3795 29.9592C22.0608 27.3395 23.7421 25.1499 23.7421 22.2174C23.7421 20.1842 22.9601 19.0894 21.4421 19.0894C19.1421 19.0894 18.5878 21.2008 18.5878 23.7814V25.2281H12.6768V23.6595C12.6768 18.0682 15.101 13.9995 21.3179 13.9995C26.8701 13.9995 29.7244 17.0884 29.7244 22.3278C29.7244 26.1987 27.7303 28.8966 25.5844 32.1419L19.4802 41.2982H28.8642V46.0684H12.6768V41.8065ZM43.4692 14.3744H48.4487V15.8993H45.6588V19.4275H47.9312V20.9662H45.6588V26.4862H43.4692V14.3744ZM49.3664 22.6866V18.1395C49.3664 15.6877 50.2634 14.2295 52.8647 14.2295C55.466 14.2295 56.3492 15.69 56.3492 18.1395V22.6866C56.3492 25.1223 55.4522 26.6472 52.867 26.6472C50.2818 26.6472 49.3664 25.1384 49.3664 22.6866ZM54.1044 23.2087V17.6335C54.1044 16.6169 53.9411 15.8533 52.8647 15.8533C51.7883 15.8533 51.6089 16.6169 51.6089 17.6335V23.1995C51.6089 24.2023 51.7722 25.0096 52.8647 25.0096C53.9572 25.0096 54.1044 24.2115 54.1044 23.1995V23.2087ZM58.0811 14.3744H60.3811L62.0992 22.7602L63.8794 14.3744H66.1058L66.3358 26.4839H64.6752L64.4958 18.0659L62.7754 26.4839H61.446L59.6957 18.036L59.5324 26.4839H57.8718L58.0811 14.3744ZM68.0378 14.3744H73.1208V15.9292H70.2366V19.4114H72.509V20.9524H70.2366V24.9728H73.1507V26.4839H68.0378V14.3744ZM77.5092 25.0625L80.7545 15.8993H77.6817V14.3744H82.9878V15.5106L79.6091 24.9728H83.0039V26.4839H77.5092V25.0625ZM84.1999 14.3744H89.2829V15.9292H86.3964V19.4114H88.6688V20.9524H86.3964V24.9728H89.3128V26.4839H84.1999V14.3744ZM90.5226 14.3744H93.439C95.8609 14.3744 97.2363 15.1518 97.2363 17.5944C97.2363 19.0457 96.8775 20.0623 95.7413 20.5246L97.4295 26.4908H95.2192L93.7702 20.9432H92.7237V26.4908H90.5249L90.5226 14.3744ZM93.4229 19.5609C94.6948 19.5609 95.1571 19.0089 95.1571 17.7071C95.1571 16.4812 94.8144 15.8832 93.5471 15.8832H92.726V19.5632L93.4229 19.5609ZM98.5818 22.6866V18.1395C98.5818 15.6877 99.4788 14.2295 102.08 14.2295C104.681 14.2295 105.569 15.69 105.569 18.1395V22.6866C105.569 25.1223 104.672 26.6472 102.087 26.6472C99.5018 26.6472 98.5818 25.1384 98.5818 22.6866ZM103.32 23.2087V17.6335C103.32 16.6169 103.157 15.8533 102.08 15.8533C101.004 15.8533 100.824 16.6169 100.824 17.6335V23.1995C100.824 24.2023 100.988 25.0096 102.08 25.0096C103.173 25.0096 103.32 24.2115 103.32 23.1995V23.2087ZM43.4692 34.1544H48.5522V35.7092H45.6588V39.1914H47.9312V40.7324H45.6588V44.7528H48.5729V46.2639H43.4692V34.1544ZM55.1509 34.1544H57.513L59.9349 46.2639H57.8879L57.4095 43.4671H55.3004L54.8082 46.2639H52.7382L55.1509 34.1544ZM57.1703 42.0595L56.3492 36.9788L55.5258 42.0595H57.1703ZM60.7583 42.2711V38.2047C60.7583 35.6034 61.5495 34.0187 64.2083 34.0187C66.69 34.0187 67.5571 35.3044 67.5571 37.5469V38.1748H65.4503V37.4848C65.4503 36.3187 65.3307 35.631 64.2382 35.631C63.0721 35.631 62.9824 36.574 62.9824 37.6803V42.7403C62.9824 43.9961 63.2124 44.7896 64.298 44.7896C65.3836 44.7896 65.6297 43.9524 65.6297 42.6368V41.5006H64.3302V40.1091H67.6192V46.2547H66.184L66.0345 45.0725C65.8849 45.4882 65.6045 45.8441 65.2354 46.0867C64.8663 46.3293 64.4284 46.4456 63.9875 46.418C61.5955 46.4295 60.7583 44.8195 60.7583 42.2711ZM69.2292 34.1544H72.1502C74.5721 34.1544 75.9475 34.9318 75.9475 37.3744C75.9475 38.8257 75.5887 39.8423 74.4525 40.3046L76.1407 46.2708H73.9281L72.4791 40.7232H71.4326V46.2708H69.2292V34.1544ZM72.1295 39.3409C73.4014 39.3409 73.8637 38.7889 73.8637 37.4871C73.8637 36.2612 73.521 35.6632 72.2537 35.6632H71.4326V39.3432L72.1295 39.3409ZM77.6058 34.1544H79.7885V46.2639H77.6058V34.1544ZM81.3893 42.3907V38.0713C81.3893 35.5896 82.1805 34.0187 84.8393 34.0187C87.321 34.0187 88.1145 35.3987 88.1145 37.5032V38.5198H85.9916V37.4733C85.9916 36.4567 85.9755 35.6333 84.8554 35.6333C83.7353 35.6333 83.6134 36.5004 83.6134 37.6067V42.8553C83.6134 44.1709 83.8825 44.7988 84.8554 44.7988C85.9456 44.7988 85.9916 43.9455 85.9916 42.8691V41.7789H88.1145V42.7495C88.1145 44.8885 87.3969 46.4295 84.8393 46.4295C82.1805 46.4295 81.3893 44.7528 81.3893 42.3907ZM89.4922 42.347V34.1544H91.645V42.6C91.645 43.75 91.7784 44.7827 92.9008 44.7827C94.0232 44.7827 94.1704 43.7523 94.1704 42.6V34.1544H96.3094V42.347C96.3094 44.8885 95.6056 46.4272 92.9008 46.4272C90.196 46.4272 89.4922 44.8885 89.4922 42.347ZM97.9792 34.1544H100.178V44.7528H103.122V46.2639H97.9792V34.1544ZM104.801 35.7828H102.871V34.1544H108.897V35.7828H107.014V46.2639H104.801V35.7828ZM109.838 42.347V34.1544H111.991V42.6C111.991 43.75 112.124 44.7827 113.247 44.7827C114.369 44.7827 114.519 43.7523 114.519 42.6V34.1544H116.655V42.347C116.655 44.8885 115.954 46.4272 113.247 46.4272C110.54 46.4272 109.838 44.8885 109.838 42.347ZM118.314 34.1544H121.23C123.652 34.1544 125.027 34.9318 125.027 37.3744C125.027 38.8257 124.668 39.8423 123.532 40.3046L125.22 46.2708H123.008L121.559 40.7232H120.519V46.2708H118.32L118.314 34.1544ZM121.209 39.3409C122.481 39.3409 122.943 38.7889 122.943 37.4871C122.943 36.2612 122.601 35.6632 121.333 35.6632H120.519V39.3432L121.209 39.3409ZM128.436 34.1544H130.798L133.22 46.2639H131.171L130.692 43.4671H128.585L128.091 46.2639H126.021L128.436 34.1544ZM130.453 42.0595L129.632 36.9765L128.799 42.0595H130.453ZM43.161 62.5157L45.0608 62.1408C45.1206 63.576 45.4633 64.5029 46.4408 64.5029C47.1308 64.5029 47.4413 64.0245 47.4413 63.3667C47.4413 62.3202 46.9031 61.7383 46.1119 61.0506L44.587 59.7189C43.7199 58.9714 43.1817 58.1342 43.1817 56.7887C43.1817 54.8751 44.3777 53.7987 46.3051 53.7987C48.5775 53.7987 49.2215 55.3236 49.3411 57.0877L47.4413 57.4166C47.3976 56.2804 47.232 55.4294 46.2614 55.4294C45.6036 55.4294 45.2448 55.9216 45.2448 56.5656C45.2448 57.3867 45.5875 57.8352 46.2315 58.3895L47.7403 59.7189C48.7293 60.5722 49.5504 61.6325 49.5504 63.2333C49.5504 64.9813 48.3245 66.2072 46.5144 66.2072C44.2972 66.2095 43.2507 64.9215 43.161 62.5157ZM50.682 62.127V53.9344H52.8348V62.38C52.8348 63.53 52.9682 64.5627 54.0906 64.5627C55.213 64.5627 55.3602 63.5323 55.3602 62.38V53.9344H57.4992V62.127C57.4992 64.6685 56.7954 66.2072 54.0906 66.2072C51.3858 66.2072 50.682 64.6685 50.682 62.127ZM58.8585 62.5157L60.7583 62.1408C60.8181 63.576 61.1608 64.5029 62.1383 64.5029C62.8398 64.5029 63.1388 64.0245 63.1388 63.3667C63.1388 62.3202 62.6006 61.7383 61.8094 61.0506L60.2845 59.7189C59.4174 58.9714 58.8792 58.1342 58.8792 56.7887C58.8792 54.8751 60.0752 53.7987 62.0026 53.7987C64.275 53.7987 64.919 55.3236 65.0386 57.0877L63.1388 57.4166C63.0951 56.2804 62.9295 55.4294 61.9589 55.4294C61.3011 55.4294 60.9423 55.9216 60.9423 56.5656C60.9423 57.3867 61.285 57.8352 61.929 58.3895L63.4378 59.7189C64.4245 60.5722 65.2479 61.6325 65.2479 63.2333C65.2479 64.9813 64.022 66.2072 62.2119 66.2072C59.9947 66.2095 58.9482 64.9215 58.8585 62.5157ZM67.679 55.5628H65.7516V53.9344H71.7753V55.5628H69.8916V66.0439H67.679V55.5628ZM72.808 53.9344H77.891V55.4892H75.0045V58.9714H77.2792V60.5124H75.0068V64.5328H77.9232V66.0439H72.808V53.9344ZM79.1307 53.9344H80.6717L83.6157 60.8344V53.9344H85.4396V66.0439H83.9745L81.0144 58.8081V66.0439H79.1307V53.9344ZM88.4158 55.5628H86.4792V53.9344H92.5052V55.5628H90.6192V66.0439H88.4066L88.4158 55.5628ZM95.0536 53.9344H97.4157L99.8376 66.0439H97.7883L97.3099 63.2471H95.2031L94.7086 66.0439H92.6386L95.0536 53.9344ZM97.0707 61.8395L96.2496 56.7565L95.4262 61.8395H97.0707ZM96.5325 50.1095H98.6025L96.8292 53.0995H95.647L96.5325 50.1095ZM99.9549 53.9344H101.889L103.499 62.4996L105.01 53.9344H106.998L104.562 66.0439H102.393L99.9549 53.9344ZM108.164 53.9344H113.247V55.4892H110.36V58.9714H112.633V60.5124H110.36V64.5328H113.277V66.0439H108.164V53.9344ZM114.486 53.9344H116.685V64.5328H119.629V66.0439H114.486V53.9344ZM65.9264 147.335V149.681C65.9251 149.699 65.9251 149.716 65.9264 149.734C65.9253 149.752 65.9253 149.771 65.9264 149.789C65.9386 150.069 66.0573 150.334 66.2582 150.53C66.459 150.726 66.727 150.838 67.0074 150.843H94.6281C94.9171 150.837 95.1925 150.719 95.3954 150.513C95.5983 150.307 95.7126 150.03 95.7137 149.741V147.071C111.209 141.99 122.819 129.432 125.368 114.128C125.368 114.096 125.368 114.066 125.384 114.038C125.393 113.987 125.399 113.936 125.4 113.884C125.4 113.738 125.372 113.593 125.316 113.458C125.26 113.322 125.178 113.2 125.074 113.096C124.971 112.993 124.848 112.911 124.713 112.855C124.578 112.799 124.433 112.77 124.287 112.771H36.5692C36.4227 112.77 36.2776 112.799 36.1421 112.854C36.0066 112.91 35.8835 112.992 35.7799 113.095C35.6762 113.199 35.594 113.322 35.538 113.457C35.482 113.592 35.4534 113.737 35.4537 113.884L35.5112 114.383C38.1792 129.834 50.1116 142.461 65.9264 147.335ZM95.6792 75.329C95.3181 75.8442 86.8426 88.0458 95.8678 97.9128C100.008 102.441 99.649 106.437 98.4668 109.134H104.256C105.429 105.151 104.946 100.153 100.245 95.0171C93.5954 87.7467 100.33 77.9211 100.431 77.767C101.225 76.6446 100.799 75.2002 99.4926 74.5263C98.1862 73.8524 96.4773 74.2135 95.6792 75.3267M81.0259 109.134H86.8173C87.988 105.151 87.5073 100.164 82.8015 95.0171C76.1476 87.7467 82.8797 77.9234 82.9855 77.767C83.7744 76.6515 83.3581 75.2094 82.0448 74.5332C80.7315 73.857 79.0295 74.2204 78.236 75.3336C77.8726 75.8465 69.3902 88.0503 78.4246 97.9174C82.5646 102.446 82.2035 106.443 81.0259 109.139M60.7813 75.329C60.4156 75.8442 51.9401 88.0458 60.9676 97.9128C65.1076 102.444 64.7511 106.439 63.5712 109.134H69.3626C70.5333 105.153 70.0526 100.164 65.3445 95.0171C58.6906 87.7467 65.4273 77.9211 65.5331 77.767C66.3197 76.6492 65.9011 75.2048 64.5878 74.5309C63.2745 73.857 61.5748 74.2158 60.7813 75.3313" fill="white"/>
</g>
</g>
</g>
<defs>
<clipPath id="clip0_325_6536">
<rect y="0.200195" width="165.6" height="165.6" rx="14.72" fill="white"/>
</clipPath>
</defs>
</svg>
