<svg width="166" height="166" viewBox="0 0 166 166" fill="none" xmlns="http://www.w3.org/2000/svg">
<g id="SDG-15">
<g clip-path="url(#clip0_325_6540)">
<path id="goal background" d="M-0.24707 -0.0483398H165.85V166.049H-0.24707V-0.0483398Z" fill="#56C02B"/>
<g id="ENG text &#38; graphics">
<path id="Vector" d="M11.2202 20.654C10.2818 21.1623 7.59081 21.9052 6.64551 22.3744V17.8779C7.89671 17.3696 11.3766 15.6883 12.5496 14.398H17.2807V46.069H11.2202V20.654ZM18.0627 36.8805H23.9208C23.9208 40.3604 24.3509 42.1705 26.5405 42.0808C28.8405 42.0026 28.9647 39.422 28.9647 35.2774C28.9647 31.9148 28.6128 29.5274 26.2668 29.5274C24.8592 29.5274 23.9668 30.5049 23.5689 32.3817H18.3755L18.8056 14.3957H33.3508V19.5983H23.7322L23.4194 26.5972C24.045 25.8152 25.6481 25.1896 27.4076 25.0723C32.2951 24.6422 34.6802 28.5223 34.6802 35.0037C34.6802 41.7289 33.3899 46.5773 26.1955 46.5773C19.5094 46.5773 18.0627 42.7501 18.0627 36.8805ZM52.1924 14.375H54.1359L55.7459 22.9402L57.2547 14.375H59.2442L56.8062 26.4845H54.6396L52.1924 14.375ZM60.086 14.375H62.2687V26.4845H60.086V14.375ZM63.6901 14.375H66.5444C69.4907 14.375 70.3808 15.5549 70.3808 18.1401V22.5515C70.3808 25.2126 69.4608 26.4845 66.6272 26.4845H63.6832L63.6901 14.375ZM66.5743 24.9435C68.0854 24.9435 68.1452 24.1362 68.1452 22.6274V17.9929C68.1452 16.5416 67.9957 15.9436 66.5352 15.9436H65.8774V24.9435H66.5743ZM73.288 14.375H75.6502L78.072 26.4845H76.0228L75.5443 23.6877H73.4376L72.943 26.4845H70.873L73.288 14.375ZM75.3052 22.2801L74.4841 17.1971L73.6606 22.2801H75.3052ZM53.9726 35.7834H52.0429V34.155H58.0689V35.7834H56.1852V46.2645H53.9726V35.7834ZM58.7267 34.155H63.8097V35.7098H60.9232V39.192H63.1956V40.733H60.9232V44.7534H63.8396V46.2645H58.7267V34.155ZM64.6745 34.155H67.5909C70.0128 34.155 71.3882 34.9324 71.3882 37.375C71.3882 38.8263 71.0294 39.8429 69.8932 40.3052L71.5838 46.2714H69.3711L67.9198 40.7238H66.8733V46.2714H64.6745V34.155ZM67.5771 39.3415C68.8467 39.3415 69.3114 38.7895 69.3114 37.4877C69.3114 36.2618 68.9664 35.6638 67.7014 35.6638H66.8779V39.3438L67.5771 39.3415ZM72.6142 34.155H75.5282C77.9501 34.155 79.3279 34.9324 79.3279 37.375C79.3279 38.8263 78.969 39.8429 77.8306 40.3052L79.521 46.2714H77.3084L75.8571 40.7238H74.8106V46.2714H72.6142V34.155ZM75.5145 39.3415C76.784 39.3415 77.2486 38.7895 77.2486 37.4877C77.2486 36.2618 76.9036 35.6638 75.6386 35.6638H74.8153V39.3438L75.5145 39.3415ZM80.5515 34.155H85.6345V35.7098H82.7503V39.192H85.0227V40.733H82.7503V44.7534H85.6644V46.2645H80.5515V34.155ZM86.2026 42.7363L88.1023 42.3614C88.1621 43.7966 88.5049 44.7235 89.4824 44.7235C90.1839 44.7235 90.4829 44.2451 90.4829 43.5873C90.4829 42.5408 89.9447 41.9589 89.1535 41.2712L87.6309 39.9395C86.7638 39.192 86.2256 38.3548 86.2256 37.0093C86.2256 35.0957 87.4216 34.0193 89.349 34.0193C91.6214 34.0193 92.2654 35.5442 92.385 37.3083L90.4852 37.6372C90.4415 36.501 90.2759 35.65 89.3053 35.65C88.6475 35.65 88.2887 36.1422 88.2887 36.7862C88.2887 37.6073 88.6314 38.0558 89.2754 38.6101L90.7842 39.9395C91.7709 40.7928 92.5943 41.8531 92.5943 43.4539C92.5943 45.2019 91.3684 46.4278 89.5583 46.4278C87.3388 46.4301 86.2923 45.1421 86.2026 42.7363ZM94.6505 35.7834H92.7208V34.155H98.7468V35.7834H96.8631V46.2645H94.6505V35.7834ZM99.4046 34.155H102.319C104.741 34.155 106.116 34.9324 106.116 37.375C106.116 38.8263 105.757 39.8429 104.621 40.3052L106.311 46.2714H104.099L102.648 40.7238H101.601V46.2714H99.4046V34.155ZM102.305 39.3415C103.574 39.3415 104.039 38.7895 104.039 37.4877C104.039 36.2618 103.694 35.6638 102.429 35.6638H101.606V39.3438L102.305 39.3415ZM107.342 34.155H112.425V35.7098H109.541V39.192H111.813V40.733H109.541V44.7534H112.455V46.2645H107.342V34.155ZM68.4695 112.39C68.5667 112.39 68.6598 112.429 68.7283 112.498C68.7968 112.567 68.8353 112.66 68.8352 112.758V124.908C68.8359 124.957 68.8268 125.005 68.8087 125.049C68.7906 125.094 68.7637 125.135 68.7296 125.169C68.6956 125.203 68.655 125.231 68.6104 125.249C68.5657 125.267 68.5178 125.277 68.4695 125.276H63.5521C63.5035 125.277 63.4553 125.268 63.4102 125.25C63.3652 125.231 63.3242 125.204 63.2898 125.17C63.2553 125.136 63.228 125.095 63.2094 125.05C63.1909 125.005 63.1815 124.957 63.1818 124.908V112.758C63.1825 112.66 63.2217 112.566 63.2911 112.497C63.3605 112.428 63.4543 112.39 63.5521 112.39H68.4695ZM122.464 130.495H41.4376C41.3384 130.497 41.2439 130.538 41.1745 130.609C41.1052 130.68 41.0667 130.775 41.0673 130.875V135.827C41.0676 135.875 41.0774 135.923 41.0962 135.967C41.115 136.012 41.1424 136.052 41.1767 136.086C41.2111 136.12 41.2519 136.147 41.2966 136.165C41.3414 136.183 41.3893 136.193 41.4376 136.192H122.464C122.562 136.192 122.656 136.154 122.725 136.086C122.795 136.017 122.835 135.924 122.837 135.827V130.875C122.836 130.775 122.797 130.68 122.728 130.609C122.658 130.539 122.564 130.498 122.464 130.495ZM122.464 140.337H41.4376C41.3893 140.337 41.3414 140.346 41.2966 140.364C41.2519 140.382 41.2111 140.409 41.1767 140.443C41.1424 140.477 41.115 140.517 41.0962 140.562C41.0774 140.606 41.0676 140.654 41.0673 140.703V145.671C41.0691 145.768 41.1089 145.86 41.178 145.929C41.2472 145.997 41.3404 146.036 41.4376 146.036H122.464C122.562 146.036 122.655 145.997 122.725 145.929C122.794 145.861 122.835 145.768 122.837 145.671V140.703C122.835 140.605 122.795 140.512 122.725 140.444C122.656 140.375 122.562 140.337 122.464 140.337ZM107.047 98.9391C106.033 98.1479 103.333 96.2987 100.037 96.2987C97.6819 96.2987 95.49 97.2187 93.5304 99.0587C93.4613 99.124 93.4064 99.2029 93.3692 99.2903C93.332 99.3778 93.3132 99.472 93.3142 99.567V100.02C93.3094 100.124 93.3276 100.227 93.3673 100.323C93.4071 100.419 93.4675 100.505 93.5442 100.574C93.6225 100.639 93.7148 100.685 93.8139 100.707C93.9129 100.73 94.0158 100.73 94.1146 100.706C94.1671 100.699 94.2187 100.686 94.2687 100.669C94.421 100.614 94.5592 100.526 94.6735 100.411C95.0967 100.126 96.2582 99.7349 97.9188 99.7349C99.6346 99.7349 103.006 100.195 106.268 103.236L106.341 103.302C106.434 103.396 106.543 103.47 106.665 103.52C106.786 103.57 106.916 103.595 107.047 103.594C107.176 103.595 107.303 103.571 107.421 103.522C107.54 103.473 107.647 103.4 107.737 103.309L107.802 103.24C111.079 100.195 114.447 99.7349 116.162 99.7349C117.834 99.7349 118.991 100.126 119.417 100.411C119.547 100.536 119.705 100.63 119.877 100.685C120.031 100.728 120.194 100.734 120.351 100.701C120.498 100.661 120.628 100.574 120.72 100.453C120.812 100.332 120.862 100.184 120.861 100.032V99.6406C120.86 99.5467 120.84 99.454 120.803 99.3679C120.765 99.2817 120.711 99.204 120.643 99.1392C118.665 97.2533 116.45 96.301 114.058 96.301C110.792 96.301 108.103 98.1203 107.064 98.946M102.017 66.6448C101.931 66.6868 101.856 66.7467 101.795 66.8205C101.734 66.8943 101.69 66.9803 101.665 67.0726L101.583 67.3417C101.552 67.4445 101.545 67.5532 101.563 67.659C101.582 67.7648 101.625 67.8649 101.688 67.9512C101.747 68.0305 101.822 68.0959 101.909 68.1428C101.996 68.1897 102.091 68.2169 102.19 68.2226C102.223 68.2293 102.258 68.2293 102.291 68.2226C102.428 68.2199 102.562 68.1861 102.684 68.1237C102.845 68.0846 103.009 68.0661 103.174 68.0685C103.538 68.0685 106.804 68.1789 108.963 71.8497L108.991 71.9026C109.044 72.0035 109.118 72.0923 109.207 72.1635C109.296 72.2347 109.398 72.2868 109.508 72.3166C109.593 72.3406 109.68 72.3537 109.768 72.3557C109.91 72.3567 110.05 72.3219 110.175 72.2545L110.228 72.2292C111.35 71.6538 112.59 71.349 113.851 71.3391C115.898 71.3391 117.234 72.174 117.547 72.5236C117.614 72.6425 117.706 72.7453 117.816 72.8249C117.901 72.8736 117.989 72.9158 118.081 72.9514C118.12 72.9602 118.16 72.9663 118.2 72.9698C118.225 72.9722 118.249 72.9722 118.274 72.9698C118.423 72.9685 118.568 72.9196 118.687 72.8303C118.807 72.7409 118.895 72.6158 118.938 72.473L119.005 72.243C119.026 72.18 119.036 72.1139 119.035 72.0475C119.037 71.9245 119.004 71.8034 118.941 71.6979C117.368 68.9655 115.084 68.3951 113.444 68.3951C112.447 68.4085 111.461 68.5937 110.527 68.9425C109.784 67.9443 107.91 65.8812 105.063 65.8812C104.003 65.8946 102.962 66.1578 102.024 66.6494M84.8961 79.1108L84.9215 79.4742C84.926 79.5849 84.9578 79.6928 85.0139 79.7882C85.0701 79.8837 85.1489 79.9639 85.2435 80.0216C85.3237 80.0722 85.4136 80.1056 85.5074 80.1199C85.6012 80.1341 85.6969 80.1288 85.7886 80.1044C85.8277 80.1044 85.8737 80.0791 85.9082 80.0676C86.0443 80.0111 86.1644 79.9218 86.2578 79.8077C86.6028 79.5593 87.7114 79.1062 89.349 79.1062C90.9222 79.1062 93.3165 79.5271 95.7545 81.5304L95.812 81.5879C95.9865 81.7366 96.2083 81.8181 96.4376 81.8179H96.4974C96.7408 81.8028 96.9686 81.693 97.1322 81.512L97.1874 81.4522C99.8876 78.5979 102.797 78.1701 104.29 78.1701C105.355 78.1701 106.109 78.4001 106.403 78.5565C106.525 78.6611 106.669 78.7359 106.824 78.775C106.921 78.798 107.022 78.805 107.121 78.7957C107.179 78.7863 107.236 78.7724 107.291 78.7543C107.432 78.7047 107.554 78.6106 107.636 78.4861C107.719 78.3617 107.76 78.2137 107.751 78.0643L107.733 77.7469C107.727 77.6545 107.702 77.5644 107.66 77.4818C107.618 77.3992 107.56 77.3259 107.489 77.2662C105.879 75.9092 104.136 75.2261 102.305 75.2261C99.4552 75.2261 97.1828 76.9097 96.2398 77.7354C95.3773 77.1489 93.2866 75.9414 90.8348 75.9414C88.6774 75.9414 86.7454 76.8361 85.0847 78.5979C85.0206 78.6674 84.9708 78.7489 84.9385 78.8377C84.9061 78.9266 84.8917 79.021 84.8961 79.1154M43.894 85.6152C43.894 83.2868 44.8185 81.0537 46.4643 79.4067C48.1101 77.7596 50.3424 76.8334 52.6708 76.8315C52.8617 76.8315 53.0457 76.8476 53.2343 76.8591C53.3628 75.1134 53.8755 73.4177 54.7357 71.8932C55.5959 70.3687 56.7824 69.0532 58.2102 68.0407C59.6381 67.0282 61.2721 66.3437 62.9953 66.0363C64.7185 65.7288 66.4884 65.806 68.1783 66.2622C69.8682 66.7185 71.4364 67.5426 72.7707 68.6755C74.105 69.8085 75.1725 71.2223 75.8967 72.8158C76.621 74.4094 76.9841 76.1433 76.9602 77.8936C76.9362 79.6438 76.5258 81.3672 75.7582 82.9403C78.9522 83.6488 81.7722 85.5116 83.6773 88.1714C85.5824 90.8311 86.4385 94.1006 86.0813 97.3527C85.7242 100.605 84.1789 103.611 81.742 105.793C79.305 107.976 76.148 109.183 72.8764 109.181C72.3405 109.181 55.1502 109.078 55.1502 109.078C53.3144 109.079 51.5184 108.543 49.984 107.535C48.4496 106.527 47.2441 105.091 46.5165 103.406C45.7889 101.72 45.571 99.8587 45.8897 98.0508C46.2085 96.2428 47.0499 94.5679 48.31 93.2328C46.9677 92.4651 45.8523 91.3562 45.0767 90.0184C44.3012 88.6806 43.8932 87.1616 43.894 85.6152Z" fill="white"/>
</g>
</g>
</g>
<defs>
<clipPath id="clip0_325_6540">
<rect x="0.000976562" y="0.200195" width="165.6" height="165.6" rx="14.72" fill="white"/>
</clipPath>
</defs>
</svg>
