<svg width="72" height="72" viewBox="0 0 72 72" fill="none" xmlns="http://www.w3.org/2000/svg">
<g id="Power energy">
<path id="Vector" d="M36.0199 9.0675V9.15949M17.7488 16.6649L17.8046 16.7207M54.2356 16.7202L54.3666 16.5892M36.0199 60.8426V60.7507M17.7488 53.2451L17.8046 53.1893M10.2222 34.9727H10.08M61.92 34.9727H61.7973M54.2356 53.1899L54.3666 53.3209" stroke="#FAFAF9" stroke-width="4.32" stroke-linecap="round" stroke-linejoin="round"/>
<path id="Vector_2" fill-rule="evenodd" clip-rule="evenodd" d="M36.0017 17.6738C45.546 17.6738 53.28 25.4111 53.28 34.952C53.28 44.4963 45.546 52.2337 36.0017 52.2337C26.4574 52.2337 18.72 44.4963 18.72 34.952C18.72 25.4111 26.4574 17.6738 36.0017 17.6738Z" stroke="#FAFAF9" stroke-width="4.32" stroke-linecap="round" stroke-linejoin="round"/>
<path id="Vector_3" d="M35.966 43.5937L41.5538 34.9563H30.4453L36.0274 26.3138" stroke="#FAFAF9" stroke-width="4.32" stroke-linecap="round" stroke-linejoin="round"/>
</g>
</svg>
