<svg width="56" height="56" viewBox="0 0 56 56" fill="none" xmlns="http://www.w3.org/2000/svg">
<g id="Christmas Party">
<path id="Vector" d="M37.4795 26.4349C39.0719 29.482 41.9017 37.3496 40.4813 44.4434" stroke="#E4A424" stroke-width="3.32" stroke-linecap="round" stroke-linejoin="round"/>
<path id="Vector_2" d="M31.9561 32.8767C32.6919 35.7309 33.1751 39.0741 32.8776 42.3685" stroke="#E4A424" stroke-width="3.32" stroke-linecap="round" stroke-linejoin="round"/>
<path id="Vector_3" d="M7.62695 22.0309L7.87893 22.4471C8.9637 24.2384 11.2953 24.8112 13.0867 23.7263L13.4781 23.4893C15.0533 22.5356 17.1035 23.0391 18.0573 24.6143" stroke="#E4A424" stroke-width="3.32" stroke-linecap="round" stroke-linejoin="round"/>
<path id="Vector_4" d="M10.7965 12.7394L9.88672 11.8644" stroke="#E4A424" stroke-width="3.32" stroke-linecap="round" stroke-linejoin="round"/>
<path id="Vector_5" fill-rule="evenodd" clip-rule="evenodd" d="M19.3838 38.7196C21.5165 40.7112 27.8088 37.4343 33.4395 31.4033C39.068 25.3725 41.9045 18.8707 39.7718 16.8792C37.6391 14.8877 31.3444 18.1645 25.716 24.1954C20.0853 30.2264 17.2511 36.7282 19.3838 38.7196Z" stroke="#A17419" stroke-width="3.32" stroke-linecap="round" stroke-linejoin="round"/>
<path id="Vector_6" d="M40.1391 17.3574L48.6395 44.0518C49.0351 45.2994 47.9003 46.4952 46.6316 46.1632L20.1797 39.2026" stroke="#A17419" stroke-width="3.32" stroke-linecap="round" stroke-linejoin="round"/>
<path id="Vector_7" d="M21.8134 16.4636C22.2204 14.8988 21.7059 12.833 20.5986 11.4696" stroke="#A17419" stroke-width="3.32" stroke-linecap="round" stroke-linejoin="round"/>
<path id="Vector_8" d="M10.9657 32.8767L9.71191 33.0232" stroke="#A17419" stroke-width="3.32" stroke-linecap="round" stroke-linejoin="round"/>
<path id="Vector_9" d="M30.7021 25.9716C32.3313 24.26 32.2647 21.552 30.5531 19.9228L30.2008 19.5874C28.6841 18.1434 28.6249 15.7433 30.0689 14.2264L30.3845 13.895C31.6541 12.5612 31.6021 10.4507 30.2682 9.18103" stroke="#E4A424" stroke-width="3.32" stroke-linecap="round" stroke-linejoin="round"/>
</g>
</svg>
