<svg width="72" height="72" viewBox="0 0 72 72" fill="none" xmlns="http://www.w3.org/2000/svg">
<g id="tree">
<path id="Vector" opacity="0.75" d="M20.3727 25.6045L20.4077 28.7407C16.2531 30.4784 13.4106 34.6062 13.4106 39.3859C13.4106 45.766 18.5945 50.9256 24.9772 50.9256H44.2818C50.635 50.9256 55.8215 45.766 55.8215 39.3859C55.8215 34.6062 52.944 30.492 48.7893 28.7272L48.881 25.7096C48.881 21.4068 47.2025 17.1471 43.8858 14.407C41.3639 12.327 38.1336 11.0769 34.6147 11.0769C30.5949 11.0769 26.9549 12.7096 24.3225 15.3528C21.6498 18.0363 20.3727 21.8164 20.3727 25.6045Z" stroke="#27995B" stroke-width="4" stroke-linecap="round" stroke-linejoin="round"/>
<path id="Vector_2" d="M28.7739 37.0522L34.6178 42.8962" stroke="#1C6C41" stroke-width="4" stroke-linecap="round" stroke-linejoin="round"/>
<path id="Vector_3" d="M34.6155 38.6856L40.4594 32.8417" stroke="#1C6C41" stroke-width="4" stroke-linecap="round" stroke-linejoin="round"/>
<path id="Vector_4" d="M34.6155 60.9231V29.3889" stroke="#1C6C41" stroke-width="4" stroke-linecap="round" stroke-linejoin="round"/>
</g>
</svg>
