<svg width="72" height="72" viewBox="0 0 72 72" fill="none" xmlns="http://www.w3.org/2000/svg">
<g id="tree">
<path id="Vector" d="M20.3728 25.6046L20.4078 28.7407C16.2532 30.4784 13.4108 34.6062 13.4108 39.3859C13.4108 45.766 18.5946 50.9256 24.9774 50.9256H44.2819C50.6351 50.9256 55.8216 45.766 55.8216 39.3859C55.8216 34.6062 52.9441 30.492 48.7894 28.7272L48.8811 25.7096C48.8811 21.4068 47.2026 17.1472 43.8859 14.4071C41.364 12.3271 38.1337 11.0769 34.6148 11.0769C30.595 11.0769 26.955 12.7097 24.3227 15.3528C21.6499 18.0363 20.3728 21.8164 20.3728 25.6046Z" stroke="#FAFAF9" stroke-width="4" stroke-linecap="round" stroke-linejoin="round"/>
<path id="Vector_2" d="M28.774 37.0523L34.6179 42.8962" stroke="#FAFAF9" stroke-width="4" stroke-linecap="round" stroke-linejoin="round"/>
<path id="Vector_3" d="M34.6154 38.6856L40.4593 32.8417" stroke="#FAFAF9" stroke-width="4" stroke-linecap="round" stroke-linejoin="round"/>
<path id="Vector_4" d="M34.6154 60.9231V29.3889" stroke="#FAFAF9" stroke-width="4" stroke-linecap="round" stroke-linejoin="round"/>
</g>
</svg>
