<svg width="134" height="44" viewBox="0 0 134 44" fill="none" xmlns="http://www.w3.org/2000/svg">
<path fill-rule="evenodd" clip-rule="evenodd" d="M46.4071 28.8706C33.4348 36.1302 19.5678 40.225 4.68696 40.675L4.65713 40.69C4.48767 40.69 4.31673 40.6811 4.14571 40.6721C3.77499 40.6526 3.4039 40.6331 3.04677 40.705C2.70949 40.7663 2.29421 40.7165 1.87999 40.6668C0.975752 40.5584 0.076583 40.4507 0.00499942 41.5C-0.100335 43.0496 1.48023 43.1607 2.72409 43.2481C2.88882 43.2597 3.04766 43.2708 3.19589 43.2849C6.81919 43.6299 10.4574 43.3449 14.0658 42.8799C29.2896 40.93 43.2609 35.5903 55.9797 26.9807C56.8893 26.3657 57.6647 26.3357 58.6488 26.6657C64.285 28.6006 70.0853 28.8706 75.9302 28.0306C86.0993 26.5607 95.7167 23.2609 105.096 19.1511C110.732 16.6912 116.189 13.8713 121.438 10.6465C121.518 10.597 121.605 10.5486 121.694 10.4991C122.198 10.2189 122.758 9.90782 122.466 9.20655C122.163 8.49051 121.613 8.72986 121.131 8.93967C120.997 8.99796 120.868 9.05396 120.752 9.08657C118.396 9.77654 116.07 10.5115 113.759 11.2915C110.273 12.4752 106.827 13.7701 103.382 15.0649C97.6155 17.2317 91.8511 19.3979 85.9055 21.041C78.6887 23.0359 71.4123 24.5508 63.8675 23.4409C63.7339 23.4217 63.5881 23.4107 63.4389 23.3994C62.8887 23.3579 62.2925 23.3128 62.0931 22.8409C61.8565 22.289 62.2949 22.0104 62.72 21.7403C62.8841 21.636 63.0462 21.533 63.1667 21.416C66.5216 18.2211 69.7423 14.9213 71.4272 10.4815C73.4551 5.11176 70.5922 0.776982 64.8963 0.461998C60.781 0.237009 57.1726 1.57192 53.9221 4.0468C47.5403 8.89156 45.8703 17.8011 52.6099 23.3058C53.6835 24.1758 53.3704 24.6708 52.3713 25.2558C51.4959 25.7684 50.6318 26.307 49.7667 26.8462C48.6574 27.5376 47.5464 28.2302 46.4071 28.8706ZM56.2034 20.651C53.9668 19.1061 52.4459 16.6312 52.4459 14.4413H52.4608C52.5801 11.7865 53.7282 9.59652 55.6517 7.84161C58.6338 5.14174 62.0186 3.35683 66.1786 4.13679C68.4451 4.55677 69.1906 5.93672 68.7582 8.2316C68.4451 9.79153 67.6399 11.1265 66.7453 12.4014C64.5236 15.5512 61.6905 18.1011 58.7531 20.561C57.8585 21.311 57.1279 21.296 56.2034 20.651Z" fill="#FFB728"/>
<path d="M127.819 3.23686C123.451 2.59189 119.052 2.18688 114.638 2.21688L114.668 2.2469C114.112 2.2469 113.555 2.24357 112.998 2.24024C111.885 2.23357 110.772 2.2269 109.658 2.2469C108.823 2.2769 107.854 2.32188 107.645 3.35683C107.422 4.48178 108.346 4.93174 109.181 5.26172C109.942 5.56171 110.762 5.7867 111.582 5.92169C112.998 6.14781 114.422 6.3228 115.849 6.49805C116.315 6.55529 116.781 6.61257 117.248 6.67166C118.292 6.80666 119.335 6.94 120.379 7.07334C122.467 7.33998 124.554 7.60662 126.641 7.88659C126.69 7.89239 126.741 7.8972 126.793 7.90216C127.15 7.9357 127.583 7.97654 127.7 8.3816C127.807 8.76485 127.506 8.98551 127.228 9.1887C127.158 9.23998 127.089 9.29014 127.029 9.34153C126.537 9.75554 126.029 10.1534 125.521 10.5512C125.182 10.8164 124.843 11.0815 124.509 11.3515C124.232 11.5731 123.954 11.7944 123.676 12.0157C119.328 15.4795 114.985 18.9399 111.537 23.3809C111.465 23.4705 111.379 23.5628 111.291 23.6577C110.908 24.0713 110.478 24.5363 110.866 25.0608C111.301 25.6477 111.832 25.3605 112.339 25.0866C112.492 25.0035 112.644 24.9216 112.789 24.8658C113.118 24.7308 113.431 24.5508 113.744 24.3708C118.609 21.6883 123.028 18.3632 127.447 15.0388C128.514 14.2366 129.58 13.4345 130.652 12.6414C131.368 12.1164 132.054 11.5164 132.636 10.8415C134.962 8.11159 134.261 5.29174 130.936 4.0168C129.937 3.64182 128.878 3.40185 127.819 3.23686Z" fill="#FFB728"/>
</svg>
