<svg width="56" height="56" viewBox="0 0 56 56" fill="none" xmlns="http://www.w3.org/2000/svg">
<g id="Discount">
<path id="Vector" fill-rule="evenodd" clip-rule="evenodd" d="M39.1951 45.8037L37.5584 45.0199C36.5819 44.5525 35.4522 44.5189 34.4483 44.9296L29.8336 46.8138C27.9706 47.5746 25.8811 47.5746 24.018 46.816L19.3949 44.9296C18.3911 44.5189 17.2615 44.5525 16.2849 45.022L14.6607 45.7994C12.938 46.6251 10.9471 45.3677 10.9492 43.4586L10.987 17.0673C10.987 11.849 13.8266 8.61536 19.0491 8.61536H34.7711C39.9789 8.61536 42.8836 11.849 42.8836 17.0673L42.9045 43.4648C42.9066 45.372 40.9156 46.6273 39.1951 45.8037Z" stroke="#A17419" stroke-width="3.23077" stroke-linecap="round" stroke-linejoin="round"/>
<path id="Vector_2" d="M21.7031 33.2243L32.1439 22.7836" stroke="#E4A424" stroke-width="3.23077" stroke-linecap="round" stroke-linejoin="round"/>
<path id="Vector_3" d="M31.827 32.8033V32.9013M32.2238 32.8244C32.2238 33.0448 32.045 33.2233 31.8247 33.2233C31.6043 33.2233 31.4258 33.0448 31.4258 32.8244C31.4258 32.6041 31.6043 32.4255 31.8247 32.4255C32.045 32.4255 32.2238 32.6041 32.2238 32.8244Z" stroke="#E4A424" stroke-width="3.23077" stroke-linecap="round" stroke-linejoin="round"/>
<path id="Vector_4" d="M22.1356 23.1109V23.2088M22.5324 23.132C22.5324 23.3523 22.3536 23.5309 22.1333 23.5309C21.9129 23.5309 21.7344 23.3523 21.7344 23.132C21.7344 22.9116 21.9129 22.733 22.1333 22.733C22.3536 22.733 22.5324 22.9116 22.5324 23.132Z" stroke="#E4A424" stroke-width="3.23077" stroke-linecap="round" stroke-linejoin="round"/>
</g>
</svg>
