<svg width="56" height="56" viewBox="0 0 56 56" fill="none" xmlns="http://www.w3.org/2000/svg">
<g id="Earth">
<path id="Vector" d="M15.4766 27.7406C17.3983 27.6694 18.9512 26.7096 20.0158 25.5862C21.8307 23.6729 22.5998 20.9108 22.5369 18.3227C22.4404 14.3556 21.2523 11.0465 20.9316 10.3738C20.1876 10.4052 16.7067 10.9082 13.1587 12.6853C10.8409 13.8442 8.76412 15.8204 7.92587 18.3206C7.21124 20.4477 7.28038 23.325 9.93142 25.5862L11.1867 26.5733" stroke="#A17419" stroke-width="3.23077" stroke-linecap="round" stroke-linejoin="round"/>
<path id="Vector_2" d="M31.8607 46.1239V46.0463C31.8794 38.3866 29.6034 32.7157 24.8191 36.7856C20.7472 40.2204 17.6603 41.3962 15.6338 41.6874" stroke="#E4A424" stroke-width="3.23077" stroke-linecap="round" stroke-linejoin="round"/>
<path id="Vector_3" d="M32.8288 10.1973C32.4809 11.2011 31.2089 15.5035 34.0631 18.5129C37.3051 21.9267 40.084 22.1195 39.9875 25.8248C39.91 29.5488 35.3184 29.49 37.8061 35.3956C38.8287 37.8266 40.0442 39.7545 40.7398 41.2215" stroke="#E4A424" stroke-width="3.23077" stroke-linecap="round" stroke-linejoin="round"/>
<path id="Vector_4" d="M12.7217 37.5933C15.3811 43.1384 21.2846 46.5021 27.8106 46.5021C38.0269 46.5021 46.3091 38.222 46.3091 28.0057C46.3091 17.7892 38.0269 9.50708 27.8106 9.50708" stroke="#A17419" stroke-width="3.23077" stroke-linecap="round" stroke-linejoin="round"/>
<path id="Vector_5" d="M14.3717 20.571C14.3717 20.571 9.93103 24.5299 11.0208 32.0218" stroke="#A17419" stroke-width="3.23077" stroke-linecap="round" stroke-linejoin="round"/>
</g>
</svg>
