<svg width="108" height="53" viewBox="0 0 108 53" fill="none" xmlns="http://www.w3.org/2000/svg">
<path d="M6.76421 7.15333C23.276 20.1006 39.0785 33.9726 58.1231 41.4855C73.4621 47.5228 88.9856 50.4184 104.844 47.6448C105.823 47.4809 107.187 46.8824 107.614 48.3519C108.093 50.0066 106.593 50.3189 105.565 50.6386C102.282 51.6331 98.8742 51.9287 95.4545 52.1074C72.2284 53.304 50.8523 45.6111 30.737 32.0883C22.704 26.7019 15.0645 20.6567 7.9295 13.0399C9.73081 18.0179 11.4586 22.4824 12.9261 27.0211C13.5669 29.0076 14.8149 31.9115 12.298 32.7547C9.74092 33.6238 9.55384 30.41 8.83742 28.6281C6.36014 22.3718 3.94317 16.0768 1.5664 9.75574C1.11522 8.58191 0.764569 7.3433 0.606723 6.10505C0.174755 2.79978 1.69284 0.979877 4.72465 0.988941C5.11028 0.989681 5.49594 0.990465 5.88043 1.08543C12.2972 2.68336 18.6798 4.36568 24.9337 6.78534C25.847 7.1315 27.2466 7.41365 27.1017 8.9405C26.9792 10.2659 25.6389 10.0391 24.786 10.1837C20.089 10.9675 15.461 9.89936 10.8353 8.64279C9.47003 8.27626 8.14845 7.60117 6.81154 7.09173L6.76421 7.15333Z" fill="#2CAB66"/>
</svg>
