<svg width="56" height="56" viewBox="0 0 56 56" fill="none" xmlns="http://www.w3.org/2000/svg">
<g id="Leaves">
<path id="Vector" fill-rule="evenodd" clip-rule="evenodd" d="M36.0053 26.5667C40.6027 29.2207 44.1876 27.5089 46.2013 25.309C48.2719 23.0477 49.1119 19.8193 48.9847 16.8112C48.7917 12.2002 47.3432 8.37696 46.9549 7.60278C46.09 7.65274 42.0533 8.31111 37.9646 10.4475C35.2948 11.8437 32.9199 14.1822 31.9959 17.1063C31.0992 19.951 31.4079 23.9128 36.0053 26.5667Z" stroke="#E4A424" stroke-width="3.5" stroke-linecap="round" stroke-linejoin="round"/>
<path id="Vector_2" fill-rule="evenodd" clip-rule="evenodd" d="M23.8774 32.5488C20.4833 36.6287 16.5262 36.2654 13.8767 34.9008C11.15 33.4955 9.24526 30.7575 8.32123 27.8901C6.90684 23.4992 6.9409 19.4105 7.03851 18.5478C7.86719 18.298 11.8811 17.517 16.4558 18.1051C19.4435 18.491 22.4835 19.8623 24.3611 22.2847C26.1885 24.6435 27.2693 28.4669 23.8774 32.5488Z" stroke="#E4A424" stroke-width="3.5" stroke-linecap="round" stroke-linejoin="round"/>
<path id="Vector_3" d="M38.6912 21.5145C38.6912 21.5145 28.2523 30.3801 30.5408 48.3974" stroke="#A17419" stroke-width="3.5" stroke-linecap="round" stroke-linejoin="round"/>
<path id="Vector_4" d="M19.5762 28.9597C19.5762 28.9597 29.0887 32.7148 30.1581 42.014" stroke="#A17419" stroke-width="3.5" stroke-linecap="round" stroke-linejoin="round"/>
</g>
</svg>
