<svg width="120" height="120" viewBox="0 0 120 120" fill="none" xmlns="http://www.w3.org/2000/svg">
<g id="Leaves">
<path id="Vector" d="M56.7338 82.6827C59.9355 82.2156 63.1916 82.6873 66.4247 82.6112C73.9196 82.4312 79.7936 76.0947 85.4968 71.8019C88.4161 69.6013 92.4938 69.893 95.0715 72.4845C97.9321 75.3539 97.9321 80.0109 95.0715 82.8849C88.9099 89.0686 83.467 94.8124 75.1145 98.0593C63.5239 102.568 52.7728 100.376 41.034 98.0593C36.4939 97.1612 32.3085 97.1072 27.71 97.1072" stroke="#1C6C41" stroke-width="6.92308" stroke-linecap="round" stroke-linejoin="round"/>
<path id="Vector_2" d="M84.6497 39.0391C82.0447 44.0193 77.6846 48.4472 72.2283 50.1717C63.7558 52.852 54.6783 47.1139 52.7652 38.6035C51.6155 33.6861 53.5018 26.8108 56.9283 23.6717C61.1495 19.8097 67.1671 18.2469 72.7803 18.4849C81.3801 18.8441 88.516 21.5476 89.9578 22.2706C89.8632 23.8828 88.6374 31.4138 84.6497 39.0391Z" stroke="#2CAB66" stroke-width="6.92308" stroke-linecap="round" stroke-linejoin="round"/>
<path id="Vector_3" d="M73.9284 31.5278C69.11 37.285 63.4349 42.0522 55.8453 44.5715C53.582 45.3259 51.1556 45.8758 48.5244 46.1946" stroke="#1C6C41" stroke-width="6.92308" stroke-linecap="round" stroke-linejoin="round"/>
<path id="Vector_4" d="M56.7245 82.5401H63.0522C67.5698 82.5401 71.221 79.289 71.221 74.7756C71.221 71.0215 68.6793 68.0169 65.0373 67.1007C59.8279 65.7941 54.6278 64.7658 49.1895 64.9006C40.567 65.1069 34.5404 69.9119 27.71 74.4881" stroke="#1C6C41" stroke-width="6.92308" stroke-linecap="round" stroke-linejoin="round"/>
<path id="Vector_5" d="M17.0898 101.538H21.8366C25.4606 101.538 27.715 98.9824 27.715 95.363V74.171C27.715 70.5516 25.4606 67.9919 21.8366 67.9919H17.0898" stroke="#1C6C41" stroke-width="6.92308" stroke-linecap="round" stroke-linejoin="round"/>
</g>
</svg>
