<svg width="72" height="72" viewBox="0 0 72 72" fill="none" xmlns="http://www.w3.org/2000/svg">
<path d="M32.402 57.8009C18.1892 55.6669 8.73415 40.7859 12.8065 26.9303C16.5879 14.0394 30.1067 6.65523 42.9975 10.4626C43.2078 10.5404 43.4411 10.5951 43.6513 10.6728C52.5505 13.5413 58.7051 21.1359 60.1422 29.8278" stroke="#A17419" stroke-width="4.32" stroke-linecap="round" stroke-linejoin="round"/>
<path opacity="0.4" d="M25.0443 55.2566C25.0443 55.2566 28.5665 49.1481 25.0616 44.255C21.5595 39.3677 21.4011 37.3577 22.0462 35.4828C23.3653 31.6611 28.6126 31.6781 26.5073 23.7495C25.1191 18.5195 22.8958 14.8446 23.5524 13.0388" stroke="#A17419" stroke-width="4.32" stroke-linecap="round" stroke-linejoin="round"/>
<path opacity="0.4" d="M60.1448 29.8195C57.7688 28.9383 53.138 28.3652 45.2871 31.1213C35.9329 34.4103 37.6148 22.1415 43.6484 10.6763" stroke="#A17419" stroke-width="4.32" stroke-linecap="round" stroke-linejoin="round"/>
<path fill-rule="evenodd" clip-rule="evenodd" d="M51.6064 61.2924C51.6064 61.2924 43.1421 58.7292 43.1421 51.6646C43.1421 44.5971 42.8368 44.8246 43.5136 44.142C44.1962 43.4537 50.4976 41.2649 51.6064 41.2649C52.7181 41.2649 59.0224 43.4595 59.6992 44.142C60.3818 44.8188 60.0736 44.5971 60.0736 51.6646C60.0736 58.7321 51.6064 61.2924 51.6064 61.2924Z" stroke="#A17419" stroke-width="4.32" stroke-linecap="round" stroke-linejoin="round"/>
</svg>
