<svg width="24" height="24" viewBox="0 0 24 24" fill="none" xmlns="http://www.w3.org/2000/svg">
<g id="Pin">
<path id="Vector" fill-rule="evenodd" clip-rule="evenodd" d="M12.0001 10.645C10.8201 10.645 9.86013 9.685 9.86013 8.505C9.86013 7.325 10.8201 6.365 12.0001 6.365C13.1801 6.365 14.1401 7.325 14.1401 8.505C14.1401 9.685 13.1801 10.645 12.0001 10.645ZM12.0001 2.375C8.59013 2.375 5.82013 5.145 5.82013 8.555C5.82013 12.785 10.6501 16.955 12.0001 16.955C13.3401 16.955 18.1701 12.785 18.1701 8.555C18.1701 5.145 15.4001 2.375 12.0001 2.375Z" fill="#33322A"/>
<path id="Vector_2" fill-rule="evenodd" clip-rule="evenodd" d="M18.8155 14.7953C18.4545 14.5913 17.9965 14.7213 17.7945 15.0823C17.5915 15.4433 17.7195 15.9003 18.0815 16.1033C18.8565 16.5383 19.2835 17.0243 19.2835 17.4733C19.2835 18.0763 18.5305 18.5893 18.0665 18.8503C17.7615 19.0303 17.4205 19.1883 17.0215 19.3343C14.2655 20.3553 9.74849 20.3573 6.98249 19.3323C6.61349 19.1983 6.25649 19.0333 5.91949 18.8413C5.46949 18.5903 4.71649 18.0773 4.71649 17.4733C4.71649 16.8673 5.46949 16.3553 5.91949 16.1033C6.28049 15.9003 6.40849 15.4433 6.20649 15.0823C6.00349 14.7213 5.54749 14.5933 5.18449 14.7953C3.55849 15.7073 3.21649 16.7543 3.21649 17.4733C3.21649 18.1903 3.55849 19.2373 5.18149 20.1483C5.58849 20.3793 6.02249 20.5793 6.46549 20.7403C8.00649 21.3113 9.97349 21.6263 12.0035 21.6263C14.0355 21.6263 16.0025 21.3113 17.5395 20.7413C18.0225 20.5663 18.4445 20.3693 18.8155 20.1493C20.4415 19.2363 20.7835 18.1903 20.7835 17.4733C20.7835 16.7553 20.4415 15.7083 18.8155 14.7953Z" fill="#33322A"/>
</g>
</svg>
