<svg width="56" height="56" viewBox="0 0 56 56" fill="none" xmlns="http://www.w3.org/2000/svg">
<g id="User gem">
<path id="Vector" fill-rule="evenodd" clip-rule="evenodd" d="M40.632 39.6569L47.3526 32.1887L45.1124 28.1937H36.1516L33.9111 32.1887L40.632 39.6569Z" stroke="#E4A424" stroke-width="3.23077" stroke-linecap="round" stroke-linejoin="round"/>
<path id="Vector_2" d="M33.737 44.9659H13.4642C10.433 44.9659 8.60136 42.999 8.47168 40.2595C8.47168 34.6836 14.507 32.76 23.6005 32.6952C24.6118 32.7047 25.5853 32.737 26.5168 32.7943" stroke="#A17419" stroke-width="3.23077" stroke-miterlimit="10" stroke-linecap="round"/>
<path id="Vector_3" d="M23.6143 26.3297C27.8367 26.3297 31.2596 22.9067 31.2596 18.6842C31.2596 14.4617 27.8367 11.0387 23.6143 11.0387C19.3918 11.0387 15.9688 14.4617 15.9688 18.6842C15.9688 22.9067 19.3918 26.3297 23.6143 26.3297Z" stroke="#A17419" stroke-width="3.23077" stroke-miterlimit="10"/>
</g>
</svg>
