<svg width="72" height="73" viewBox="0 0 72 73" fill="none" xmlns="http://www.w3.org/2000/svg">
<path d="M36.0199 9.505V9.59699M17.7488 17.1024L17.8046 17.1582M54.2356 17.1577L54.3666 17.0267M36.0199 61.2801V61.1882M17.7488 53.6826L17.8046 53.6268M10.2222 35.4102H10.08M61.92 35.4102H61.7973M54.2356 53.6274L54.3666 53.7584" stroke="#A17419" stroke-width="4.32" stroke-linecap="round" stroke-linejoin="round"/>
<path opacity="0.4" fill-rule="evenodd" clip-rule="evenodd" d="M36.0017 18.1112C45.546 18.1112 53.28 25.8486 53.28 35.3894C53.28 44.9337 45.546 52.6711 36.0017 52.6711C26.4574 52.6711 18.72 44.9337 18.72 35.3894C18.72 25.8486 26.4574 18.1112 36.0017 18.1112Z" stroke="#A17419" stroke-width="4.32" stroke-linecap="round" stroke-linejoin="round"/>
<path d="M35.966 44.0312L41.5538 35.3938H30.4453L36.0274 26.7512" stroke="#A17419" stroke-width="4.32" stroke-linecap="round" stroke-linejoin="round"/>
</svg>
