<svg width="72" height="72" viewBox="0 0 72 72" fill="none" xmlns="http://www.w3.org/2000/svg">
<path d="M34.0405 49.6096C35.9615 49.3293 37.9152 49.6123 39.8551 49.5666C44.352 49.4586 47.8764 45.6568 51.2983 43.0811C53.0499 41.7607 55.4965 41.9358 57.0431 43.4907C58.7595 45.2123 58.7595 48.0065 57.0431 49.7309C53.3462 53.4411 50.0804 56.8874 45.069 58.8355C38.1146 61.5408 31.6639 60.2257 24.6207 58.8355C21.8966 58.2966 19.3853 58.2642 16.6262 58.2642" stroke="#A17419" stroke-width="4.15385" stroke-linecap="round" stroke-linejoin="round"/>
<path opacity="0.4" d="M50.7899 23.4235C49.227 26.4116 46.6109 29.0684 43.3371 30.103C38.2536 31.7113 32.8071 28.2684 31.6592 23.1621C30.9694 20.2117 32.1012 16.0865 34.1571 14.2031C36.6898 11.8859 40.3003 10.9482 43.6683 11.091C48.8282 11.3065 53.1097 12.9286 53.9748 13.3624C53.918 14.3297 53.1825 18.8483 50.7899 23.4235Z" stroke="#A17419" stroke-width="4.15385" stroke-linecap="round" stroke-linejoin="round"/>
<path d="M44.3573 18.9167C41.4662 22.3711 38.0611 25.2314 33.5074 26.743C32.1494 27.1956 30.6936 27.5255 29.1149 27.7168" stroke="#A17419" stroke-width="4.15385" stroke-linecap="round" stroke-linejoin="round"/>
<path d="M34.035 49.5242H37.8316C40.5421 49.5242 42.7328 47.5736 42.7328 44.8655C42.7328 42.613 41.2078 40.8103 39.0226 40.2606C35.897 39.4766 32.7769 38.8596 29.5139 38.9405C24.3404 39.0643 20.7245 41.9473 16.6262 44.693" stroke="#A17419" stroke-width="4.15385" stroke-linecap="round" stroke-linejoin="round"/>
<path d="M10.2548 60.923H13.1028C15.2773 60.923 16.6299 59.3897 16.6299 57.2181V44.5029C16.6299 42.3312 15.2773 40.7954 13.1028 40.7954H10.2548" stroke="#A17419" stroke-width="4.15385" stroke-linecap="round" stroke-linejoin="round"/>
</svg>
