<svg width="56" height="56" viewBox="0 0 56 56" fill="none" xmlns="http://www.w3.org/2000/svg">
<g id="Wallet love">
<path id="Vector" d="M46.3022 33.1823H38.1021C35.0906 33.1823 32.6514 30.7409 32.6514 27.7297C32.6514 24.7203 35.0906 22.2788 38.1021 22.2788H46.3022" stroke="#E4A424" stroke-width="3.23077" stroke-linecap="round" stroke-linejoin="round"/>
<path id="Vector_2" d="M37.6828 27.6091H37.6758" stroke="#A17419" stroke-width="3.23077" stroke-linecap="round" stroke-linejoin="round"/>
<path id="Vector_3" d="M7.53613 25.1364V20.7272C7.53613 14.8553 12.2953 10.0961 18.1673 10.0961H35.6742C41.5462 10.0961 46.3054 14.8553 46.3054 20.7272V35.2646C46.3054 41.1367 41.5462 45.8958 35.6742 45.8958H28.2955" stroke="#A17419" stroke-width="3.23077" stroke-linecap="round" stroke-linejoin="round"/>
<path id="Vector_4" fill-rule="evenodd" clip-rule="evenodd" d="M14.8963 45.7847C13.1695 44.7222 11.5642 43.471 10.1099 42.0566C9.08509 41.0359 8.30552 39.7953 7.83191 38.4291C6.97899 35.7654 7.97441 32.7227 10.77 31.8215C12.2411 31.3479 13.8506 31.6182 15.087 32.5465C16.3192 31.6204 17.9266 31.352 19.3956 31.8215C22.1911 32.7227 23.1929 35.7654 22.3421 38.4291C21.8685 39.7974 21.0889 41.0402 20.0641 42.0607C18.6098 43.4732 17.0045 44.7222 15.2777 45.7847L15.0912 45.8999L14.8963 45.7847Z" stroke="#E4A424" stroke-width="3.23077" stroke-linecap="round" stroke-linejoin="round"/>
</g>
</svg>
